<svg xmlns="http://www.w3.org/2000/svg" xmlns:xlink="http://www.w3.org/1999/xlink" xmlns:ev="http://www.w3.org/2001/xml-events" version="1.1" id="Layer_1" x="325" y="17%" enable-background="new 0 0 723 626" xml:space="preserve"><g><g id="svg_1" fill="#000000" transform="translate(0,461) scale(0.10000000149011612,-0.10000000149011612) "><path id="svg_2" d="m4315 3849c-390-27-601-107-745-281 -136-162-180-345-196-800l-7-208 -158 0 -159 0 -2 643 -3 642 -156 3c-123 2-159 0-168-11 -8-10-12-309-13-1112l-3-1098 -350 415c-192 229-608 722-922 1096 -315 374-580 687-589 696 -14 14-53 16-327 14l-312-3 0-1315 0-1315 154-3c104-2 158 1 167 9 12 10 14 197 14 1180l0 1169 39 0 38 0 1004-1180 1004-1180 210 2 210 3 3 588 2 587 164 0 163 0 6-172c13-368 58-541 181-704 117-156 303-240 618-280 176-22 971-32 1226-15 198 13 369 40 463 72 277 94 430 284 483 599 17 105 36 327 36 433l0 67 456-2 456-3 297-585 297-585 210-2 209-3 300 590 300 590 461 0 461 0 6-172c19-517 122-741 406-883 184-92 378-116 985-122 617-7 909 14 1097 78 277 94 430 284 483 599 17 105 36 327 36 433l0 67 380 0 380 0 0 85 0 85 -378 0 -378 0 -12 238c-13 251-33 434-57 518 -30 103-94 214-169 289 -83 84-147 122-273 165 -206 69-444 90-1008 90 -748 0-983-37-1191-185 -121-87-215-228-255-384 -28-109-47-286-55-523l-7-208 -414 0 -415 0 65 123c35 67 174 338 307 602 134 264 250 488 258 498 12 14 13 22 4 42l-12 25 -1511-2c-1373-3-1513-4-1522-19 -8-12 5-46 56-145 456-897 567-1117 567-1120 0-2-184-4-408-4l-408 0 -12 238c-13 251-33 434-57 518 -8 28-33 89-56 134 -49 98-152 208-239 258 -129 72-344 122-615 142 -160 11-934 11-1100-1zm4766-391c-69-133-371-718-760-1472 -114-220-211-401-217-403 -6-2-64 101-129 229 -65 128-180 352-255 498 -213 412-650 1268-650 1274 0 3 468 6 1040 6l1040 0 -69-132zm-3621 41c256-18 383-57 454-141 42-49 92-165 112-258 14-70 34-337 34-467l0-73 -1182 0 -1181 0 7 178c23 602 120 727 587 761 169 12 1001 12 1169 0zm6460 0c256-18 383-57 454-141 42-49 92-165 112-258 14-70 34-337 34-467l0-73 -1182 0 -1181 0 7 178c23 602 120 727 587 761 169 12 1001 12 1169 0zm-5873-1266c-12-289-50-426-147-524 -103-105-202-125-674-140 -400-12-976 1-1116 26 -156 29-260 96-315 205 -48 95-85 314-85 506l0 84 1172 0 1171 0 -6-157zm6460 0c-12-289-50-426-147-524 -103-105-202-125-674-140 -400-12-976 1-1116 26 -156 29-260 96-315 205 -48 95-85 314-85 506l0 84 1172 0 1171 0 -6-157z"/></g></g></svg>