<?xml version="1.0" standalone="no"?>
<!DOCTYPE svg PUBLIC "-//W3C//DTD SVG 20010904//EN"
 "http://www.w3.org/TR/2001/REC-SVG-20010904/DTD/svg10.dtd">
<svg version="1.0" xmlns="http://www.w3.org/2000/svg"
 width="723.000000pt" height="626.000000pt" viewBox="0 0 723.000000 626.000000"
 preserveAspectRatio="xMidYMid meet">
<metadata>
Created by potrace 1.12, written by Peter Selinger 2001-2015
</metadata>
<g transform="translate(0.000000,626.000000) scale(0.100000,-0.100000)"
fill="#000000" stroke="none">
<path d="M27 6212 c1816 -3150 3589 -6210 3594 -6204 8 8 3609 6243 3609 6249
0 1 -1627 3 -3615 3 l-3615 0 27 -48z m6330 -464 c-2 -7 -330 -575 -727 -1263
-397 -687 -1008 -1745 -1358 -2350 -349 -605 -640 -1106 -647 -1113 -10 -11
-138 205 -640 1075 -345 598 -644 1115 -665 1148 -30 49 -1347 2329 -1428
2473 l-24 42 2747 0 c2194 0 2746 -3 2742 -12z"/>
</g>
</svg>
