<?xml version="1.0" encoding="utf-8"?>
<!-- Generator: Adobe Illustrator 16.0.0, SVG Export Plug-In . SVG Version: 6.00 Build 0)  -->
<!DOCTYPE svg PUBLIC "-//W3C//DTD SVG 1.1//EN" "http://www.w3.org/Graphics/SVG/1.1/DTD/svg11.dtd">
<svg version="1.1" id="Layer_1" xmlns="http://www.w3.org/2000/svg" xmlns:xlink="http://www.w3.org/1999/xlink" x="0px" y="0px"
	 width="723px" height="626px" viewBox="0 0 723 626" enable-background="new 0 0 723 626" xml:space="preserve">
<path fill="#232322" d="M0,0h723v1.58c-3.72,4.37-5.58,9.96-8.89,14.62C596.69,219.439,479.44,422.79,361.96,626h-0.6
	C243.45,421.77,125.54,217.55,7.63,13.32C5.09,9.061,2.85,4.62,0,0.55V0z"/>
<path fill="#FFFFFF" d="M86.57,48.002c183.289,0.01,366.569-0.02,549.859,0.02c-40.779,70.681-81.6,141.33-122.39,212.01
	c-7.36,12.841-14.91,25.58-22.11,38.521l-0.229-0.01c-86.79-0.09-173.59-0.06-260.38-0.011h-0.211
	c-20.239-35.569-40.899-70.899-61.289-106.379C142.061,144.111,114.359,96.031,86.57,48.002z"/>
<path fill="#21B795" d="M231.311,298.599c86.79-0.049,173.59-0.079,260.38,0.011c-19.42,34.3-39.36,68.31-59,102.479
	c-23.71,41.091-47.44,82.16-71.15,123.25c-20.92-36.039-41.68-72.17-62.55-108.229C276.48,376.909,253.65,337.89,231.311,298.599z"
	/>
</svg>
