<?xml version="1.0" standalone="no"?>
<!DOCTYPE svg PUBLIC "-//W3C//DTD SVG 20010904//EN"
 "http://www.w3.org/TR/2001/REC-SVG-20010904/DTD/svg10.dtd">
<svg version="1.0" xmlns="http://www.w3.org/2000/svg"
 width="16.000000pt" height="16.000000pt" viewBox="0 0 16.000000 16.000000"
 preserveAspectRatio="xMidYMid meet">
<metadata>
Created by potrace 1.11, written by Peter Selinger 2001-2013
</metadata>
<g transform="translate(0.000000,16.000000) scale(0.006250,-0.006250)"
fill="#000000" stroke="none">
<path d="M1263 2548 c-5 -7 -9 -27 -8 -44 2 -25 -3 -35 -25 -47 -15 -9 -33
-31 -41 -49 -7 -18 -20 -39 -29 -45 -13 -12 -13 -14 2 -26 9 -7 17 -24 18 -37
4 -45 0 -90 -7 -88 -20 5 -105 -17 -170 -44 -73 -30 -156 -83 -218 -139 -125
-114 -221 -318 -224 -475 -1 -35 -5 -43 -24 -48 -32 -8 -51 -50 -36 -79 7 -12
17 -25 23 -29 6 -4 345 -8 753 -8 l742 0 20 25 c16 21 18 31 9 55 -5 16 -18
32 -28 35 -13 4 -19 21 -24 68 -24 220 -140 411 -321 532 -66 44 -175 91 -232
100 -73 13 -73 12 -73 66 0 35 4 51 15 55 16 6 21 44 6 44 -5 0 -14 14 -21 31
-7 16 -28 42 -46 55 -20 15 -31 31 -27 40 7 18 -5 64 -16 64 -5 0 -13 -6 -18
-12z m48 -228 c1 -3 3 -25 3 -50 l2 -45 -38 -1 c-40 -1 -40 -1 -40 61 0 14 0
29 1 33 1 9 70 11 72 2z"/>
<path d="M414 1240 c-42 -17 -41 -84 2 -100 l23 -9 -1 -205 c0 -112 3 -209 7
-216 4 -7 28 -10 63 -8 l57 3 2 165 c0 91 2 175 2 188 1 31 36 62 69 62 32 0
72 -32 72 -58 1 -9 2 -93 3 -187 l2 -170 85 0 85 0 1 180 c0 122 4 187 12 202
24 44 100 43 120 -2 8 -17 12 -89 12 -204 l0 -178 85 -1 c73 0 85 2 86 16 0
10 1 94 2 188 2 154 4 174 21 193 28 31 79 28 105 -5 20 -25 21 -40 21 -209
l0 -182 80 0 c44 0 83 4 86 9 3 5 6 87 6 183 0 159 1 176 19 200 26 32 71 33
102 3 22 -22 23 -29 22 -210 l0 -186 85 1 85 2 3 185 c2 173 4 186 24 207 26
28 68 30 99 4 23 -18 23 -22 24 -210 l0 -191 65 3 65 2 2 145 c1 80 2 178 2
218 1 56 4 72 16 72 16 0 35 30 35 54 0 9 -9 25 -20 36 -20 20 -33 20 -867 19
-467 0 -857 -4 -869 -9z"/>
<path d="M100 537 c-43 -21 -36 -93 10 -109 7 -2 11 -74 10 -216 l0 -213 62 3
63 3 1 170 c2 208 0 191 24 215 27 27 81 26 106 -1 17 -19 19 -38 19 -205 l0
-184 85 0 85 0 0 184 c0 167 2 186 19 205 20 22 65 28 96 11 30 -16 36 -57 35
-233 l-1 -167 83 0 83 0 1 33 c0 17 1 100 2 183 2 134 4 154 21 173 22 24 71
28 98 7 29 -22 34 -55 33 -228 l-1 -168 83 0 83 0 0 179 c0 165 2 180 21 205
27 34 79 36 109 4 19 -20 20 -34 20 -205 l0 -183 85 0 85 0 0 183 c0 171 1
185 20 205 13 14 33 22 53 22 70 0 77 -23 77 -235 l0 -176 83 3 82 3 1 165 c2
207 0 192 24 218 27 29 80 29 106 1 17 -19 19 -41 22 -205 l3 -184 82 0 82 0
0 167 c-1 176 5 217 35 233 31 17 76 11 96 -11 17 -19 19 -39 21 -193 0 -94 1
-177 2 -183 1 -9 20 -13 61 -13 l60 0 0 210 c0 207 0 209 23 221 29 16 37 28
37 61 0 61 69 58 -1205 58 -912 0 -1165 -3 -1185 -13z"/>
</g>
</svg>
