<?xml version="1.0" standalone="no"?>
<!DOCTYPE svg PUBLIC "-//W3C//DTD SVG 20010904//EN"
 "http://www.w3.org/TR/2001/REC-SVG-20010904/DTD/svg10.dtd">
<svg version="1.0" xmlns="http://www.w3.org/2000/svg"
 width="16.000000pt" height="16.000000pt" viewBox="0 0 16.000000 16.000000"
 preserveAspectRatio="xMidYMid meet">
<metadata>
Created by potrace 1.11, written by Peter Selinger 2001-2013
</metadata>
<g transform="translate(0.000000,16.000000) scale(0.002286,-0.002286)"
fill="#000000" stroke="none">
<path d="M3465 6159 c-498 -40 -1007 -245 -1403 -564 -176 -143 -489 -482
-465 -506 4 -4 54 -11 111 -15 82 -5 102 -4 102 6 0 10 3 10 13 -2 9 -11 37
-17 102 -21 195 -12 325 -90 325 -196 l0 -35 98 95 c171 166 310 266 506 360
253 122 479 178 754 186 391 13 722 -72 1047 -268 286 -172 534 -430 689 -716
25 -46 35 -55 90 -77 93 -37 383 -173 454 -212 54 -30 67 -34 91 -26 26 9 28
8 23 -10 -3 -13 1 -24 11 -30 23 -12 63 -146 77 -258 14 -104 8 -224 -15 -330
-13 -61 -13 -67 6 -92 l20 -28 -28 0 c-25 0 -31 -8 -62 -76 -19 -42 -52 -103
-73 -135 -21 -33 -38 -62 -38 -64 0 -2 20 4 45 15 25 11 45 18 45 17 0 -1 -9
-30 -20 -65 l-20 -63 41 -52 42 -52 -69 -5 c-103 -8 -97 -26 25 -75 73 -28
101 -45 105 -60 3 -11 6 -58 6 -105 0 -52 4 -80 9 -75 27 28 112 367 143 570
17 119 18 558 0 680 -73 506 -264 953 -569 1330 -98 121 -306 326 -424 418
-512 397 -1151 588 -1794 536z m395 -195 c15 -60 13 -59 124 -102 15 -7 9 -14
-38 -45 l-56 -37 0 -66 c0 -74 6 -73 -73 -11 l-34 27 -62 -19 c-41 -13 -61
-15 -58 -8 2 7 12 35 21 64 l17 52 -29 43 c-51 76 -52 72 21 66 l67 -6 36 49
c20 27 39 49 43 49 4 0 14 -25 21 -56z m-480 -33 c14 -58 18 -62 88 -88 l53
-19 -55 -37 -56 -37 0 -65 c0 -36 -3 -65 -6 -65 -3 0 -27 18 -53 40 l-48 39
-62 -19 c-71 -21 -69 -26 -35 62 l18 46 -30 44 c-52 77 -54 72 19 64 l67 -7
36 51 c20 27 40 48 44 45 4 -3 13 -27 20 -54z m981 -59 c15 -55 16 -56 72 -76
31 -12 57 -24 57 -27 0 -4 -22 -21 -50 -39 l-49 -32 -3 -69 -3 -69 -49 42 -49
42 -61 -16 c-33 -9 -62 -15 -64 -14 -1 2 7 29 18 61 l20 59 -35 53 c-19 29
-35 54 -35 56 0 2 28 1 63 -1 l63 -4 39 51 c21 28 41 48 44 45 3 -3 13 -31 22
-62z m-1353 -122 l64 -13 -47 -47 -47 -48 7 -61 c4 -34 4 -61 1 -61 -3 0 -28
12 -55 27 l-49 28 -57 -28 c-32 -15 -59 -27 -60 -25 -2 2 2 31 9 65 l13 62
-49 48 -49 48 68 10 68 10 30 57 30 58 29 -59 29 -59 65 -12z m1886 -125 c28
-10 55 -21 59 -25 5 -4 -14 -22 -42 -39 l-50 -32 -7 -69 -6 -69 -49 41 -49 42
-56 -18 c-31 -10 -58 -15 -61 -12 -3 3 4 31 15 61 l22 56 -35 52 -35 52 65 3
66 3 37 52 37 51 19 -65 c19 -66 19 -66 70 -84z m-2364 16 c24 -48 35 -60 60
-65 16 -3 44 -9 61 -12 l31 -6 -47 -48 c-46 -47 -47 -48 -40 -96 4 -27 9 -57
12 -67 4 -16 -5 -13 -55 15 l-61 33 -57 -28 -57 -28 7 51 c4 27 9 56 11 63 3
6 -15 35 -40 64 l-45 51 62 9 63 8 30 57 c17 32 31 58 32 58 2 0 16 -27 33
-59z m2698 -275 c5 -11 33 -28 67 -41 l60 -22 -52 -37 c-50 -35 -52 -39 -58
-94 -4 -31 -7 -61 -8 -65 -2 -5 -23 8 -47 27 -51 40 -60 42 -120 21 -24 -8
-45 -13 -48 -10 -3 2 5 31 16 62 l22 58 -35 51 c-19 28 -35 53 -35 57 0 3 28
4 63 0 l62 -5 40 55 40 56 13 -47 c7 -26 16 -55 20 -66z m-2998 -70 c30 -4 57
-10 59 -12 3 -3 -15 -24 -38 -48 l-44 -44 8 -67 7 -67 -59 33 -59 33 -58 -32
c-56 -30 -58 -30 -52 -9 3 12 9 45 12 72 6 48 5 51 -35 90 -23 21 -41 42 -41
46 0 3 25 9 56 12 67 7 74 12 104 77 l24 51 31 -63 30 -63 55 -9z m3324 -218
c16 -57 16 -57 76 -79 33 -12 60 -23 60 -24 0 -1 -25 -19 -55 -39 l-55 -36 0
-66 c0 -74 6 -73 -73 -11 l-34 27 -62 -19 c-41 -13 -61 -15 -58 -8 2 7 13 35
23 63 l18 51 -32 50 c-18 27 -32 53 -32 58 0 4 27 5 61 3 l61 -4 41 54 c23 30
42 50 43 46 2 -5 10 -35 18 -66z m277 -459 c6 -26 16 -39 32 -43 13 -3 40 -13
61 -21 l38 -16 -54 -37 -53 -38 -3 -67 -3 -67 -50 42 -50 42 -47 -13 c-26 -7
-55 -15 -64 -18 -16 -5 -15 1 6 58 l24 63 -39 57 -38 56 67 -5 67 -4 40 55 40
56 8 -32 c5 -18 12 -48 18 -68z"/>
<path d="M1390 4821 c-109 -34 -167 -116 -177 -256 l-6 -73 163 59 c155 57
525 169 558 169 40 0 -13 20 -118 45 -279 64 -357 75 -420 56z"/>
<path d="M2878 4703 c-64 -4 -68 -5 -68 -28 0 -42 10 -55 44 -55 46 0 83 -24
186 -122 71 -67 90 -91 83 -103 -5 -8 -51 -60 -102 -115 -63 -69 -102 -102
-124 -108 -29 -8 -32 -12 -29 -43 2 -19 5 -35 7 -37 2 -2 71 0 154 4 l151 7 0
38 c0 35 -3 39 -24 39 -32 0 -56 10 -56 22 0 12 90 128 100 128 11 0 105 -118
105 -132 0 -7 -12 -14 -27 -16 -25 -3 -28 -7 -28 -43 l0 -39 77 0 c42 0 128
-5 191 -11 62 -6 115 -9 117 -7 3 2 6 19 7 37 3 30 0 34 -37 46 -40 14 -78 51
-200 190 l-59 68 74 70 c79 73 129 102 198 113 41 6 42 8 42 44 l0 38 -97 6
c-54 4 -135 9 -180 12 l-83 6 0 -41 c0 -39 1 -41 30 -41 47 0 47 -23 -2 -80
l-43 -51 -47 53 c-26 29 -46 58 -45 63 2 6 17 12 33 15 25 4 29 10 32 43 l3
37 -158 -2 c-87 -1 -188 -3 -225 -5z"/>
<path d="M3899 4640 c-105 -18 -168 -82 -160 -160 1 -8 15 -27 32 -42 67 -63
182 -13 144 62 -18 35 -3 58 41 66 44 8 111 -10 142 -39 30 -28 30 -92 -1
-138 -31 -46 -134 -107 -278 -165 l-121 -49 5 -48 c2 -26 6 -49 9 -52 2 -2 51
-11 109 -20 57 -8 169 -29 248 -47 121 -27 145 -29 151 -17 5 8 29 45 54 84
24 38 42 73 40 77 -3 4 -23 13 -45 20 -38 11 -42 10 -58 -10 -30 -39 -62 -44
-174 -22 -56 11 -104 20 -107 21 -3 0 51 17 120 38 217 65 290 119 290 216 0
91 -93 173 -236 208 -81 20 -150 26 -205 17z"/>
<path d="M2310 4621 l-85 -16 -27 -105 c-16 -58 -43 -179 -63 -270 -34 -164
-35 -165 -75 -201 -38 -35 -39 -38 -29 -69 9 -25 16 -31 33 -26 11 3 77 20
146 38 69 17 126 32 128 34 2 1 0 18 -3 38 -7 35 -8 36 -54 33 l-46 -2 2 59
c1 32 4 61 7 63 7 8 169 42 198 43 21 0 32 -9 53 -46 31 -53 28 -70 -15 -79
-30 -7 -32 -9 -27 -42 4 -20 7 -37 9 -38 2 -2 50 5 108 15 58 10 135 21 172
25 37 3 70 10 72 13 2 4 1 21 -1 39 -4 27 -11 33 -42 40 -31 7 -45 22 -109
113 -81 118 -210 292 -244 331 l-23 26 -85 -16z m50 -232 l50 -64 -73 -17
c-39 -9 -74 -15 -76 -13 -4 4 28 144 36 158 6 10 4 13 63 -64z"/>
<path d="M4486 4522 c-2 -4 -6 -20 -10 -37 -5 -27 -2 -32 26 -45 55 -26 55
-32 3 -211 -64 -218 -65 -219 -119 -219 -37 0 -45 -4 -50 -22 -11 -42 -6 -47
82 -73 48 -15 152 -52 232 -83 131 -50 153 -55 225 -56 93 0 148 20 212 77 88
80 118 216 70 320 -30 65 -101 135 -178 177 -102 54 -484 187 -493 172z m367
-210 c34 -16 75 -43 89 -61 70 -82 39 -231 -64 -314 -29 -23 -51 -31 -92 -35
-60 -5 -154 21 -163 44 -5 13 40 151 109 342 23 62 32 64 121 24z"/>
<path d="M1690 4456 c-195 -67 -450 -176 -450 -192 0 -3 7 -18 15 -35 13 -24
19 -28 35 -19 10 5 33 10 50 10 31 0 33 -4 109 -163 102 -212 99 -201 61 -238
-29 -29 -30 -34 -19 -60 6 -16 17 -29 24 -29 7 0 48 16 91 36 43 19 114 49
158 66 45 17 82 32 84 33 1 1 -3 16 -9 33 -10 30 -12 31 -58 25 -55 -6 -56 -5
-95 86 -17 41 -23 68 -17 74 5 5 29 12 54 14 39 5 46 2 65 -21 11 -15 22 -31
24 -36 4 -14 78 11 78 26 0 14 -81 246 -89 256 -4 4 -23 2 -44 -4 -37 -11 -38
-12 -31 -53 5 -39 3 -44 -25 -64 -17 -12 -42 -23 -57 -24 -22 -2 -28 5 -50 57
-30 70 -24 81 58 111 79 29 168 26 245 -9 l62 -28 30 22 c17 12 31 25 31 30 0
12 -150 150 -164 150 -6 0 -81 -24 -166 -54z"/>
<path d="M5364 4062 c-72 -25 -118 -66 -154 -138 -90 -177 10 -394 233 -504
105 -51 224 -58 305 -16 l22 12 -26 41 -27 41 -36 -15 c-91 -38 -257 17 -307
102 -62 106 3 293 121 346 70 32 135 18 203 -44 55 -51 78 -100 87 -189 6 -66
6 -66 47 -83 22 -9 42 -14 44 -12 2 2 11 52 21 111 19 119 16 134 -33 151 -16
6 -54 36 -85 67 -61 61 -147 110 -236 133 -74 19 -116 18 -179 -3z"/>
<path d="M1122 3973 c-49 -299 -41 -677 21 -973 l13 -65 8 50 c4 28 9 62 12
76 6 29 -14 22 254 93 582 154 1411 248 2040 231 233 -6 644 -32 670 -41 8 -3
143 -10 300 -14 373 -12 601 -37 901 -100 79 -16 160 -34 180 -40 l36 -10 -13
-58 c-21 -87 -21 -86 51 -109 l65 -21 50 39 c37 29 50 46 50 65 0 24 3 26 32
20 17 -3 30 -4 27 -2 -17 16 -215 124 -372 202 -512 253 -1054 412 -1629 478
-187 22 -275 20 -473 -9 -481 -70 -922 -188 -1400 -376 -86 -33 -159 -59 -161
-56 -3 3 -8 55 -11 115 l-6 110 -81 -29 c-65 -23 -90 -38 -125 -76 -46 -50
-46 -54 -25 -151 l7 -34 -61 31 -62 31 -48 -30 c-27 -16 -52 -30 -56 -30 -3 0
-3 31 0 68 l6 68 -47 38 c-53 44 -50 50 32 61 75 10 76 27 10 122 -69 99 -110
179 -148 296 -17 50 -32 93 -34 95 -1 1 -7 -28 -13 -65z"/>
<path d="M3023 3203 c-66 -4 -73 -6 -73 -24 0 -12 8 -23 20 -26 33 -9 112
-129 118 -178 4 -37 2 -44 -17 -50 -12 -3 -21 -15 -21 -26 0 -17 8 -19 80 -19
72 0 80 2 80 19 0 11 -9 23 -20 26 -16 5 -20 15 -20 52 0 57 59 169 96 183 14
6 24 18 24 30 0 18 -6 20 -70 20 -68 0 -70 -1 -70 -25 0 -16 6 -25 15 -25 19
0 18 -17 -4 -59 l-18 -33 -21 36 c-26 44 -27 56 -6 56 20 0 15 45 -6 45 -8 1
-48 0 -87 -2z"/>
<path d="M2617 3140 c-4 -16 -17 -39 -31 -51 -25 -21 -25 -49 -1 -49 9 0 15
-24 20 -72 9 -91 24 -118 68 -118 32 0 97 32 97 48 0 4 -5 13 -12 20 -9 9 -16
8 -30 -5 -26 -23 -34 -9 -41 70 l-6 67 29 0 c25 0 30 4 30 25 0 22 -4 25 -35
25 -33 0 -35 2 -35 35 0 30 -3 35 -24 35 -18 0 -25 -7 -29 -30z"/>
<path d="M4302 3122 c-3 -10 3 -21 16 -30 19 -12 22 -24 22 -82 0 -111 -10
-160 -31 -160 -13 0 -19 -7 -19 -24 0 -21 6 -24 51 -30 29 -4 64 -10 79 -12
22 -5 28 -2 33 15 3 14 -1 22 -14 26 -17 6 -19 17 -19 89 0 108 7 143 31 149
11 3 19 14 19 26 0 22 -8 25 -103 40 -49 7 -60 6 -65 -7z"/>
<path d="M3384 3116 c-62 -28 -82 -100 -48 -171 39 -83 162 -98 214 -25 22 30
27 92 11 133 -22 56 -117 90 -177 63z m100 -89 c17 -67 -20 -120 -59 -87 -16
13 -21 110 -8 124 4 4 19 6 33 4 20 -2 27 -11 34 -41z"/>
<path d="M3608 3103 c-24 -6 -23 -35 2 -51 17 -10 20 -23 20 -78 0 -56 3 -68
25 -89 25 -26 76 -33 105 -15 8 5 17 5 20 1 3 -4 26 -11 53 -14 45 -6 47 -5
47 17 0 13 -7 29 -15 36 -11 9 -15 35 -15 101 l0 89 -55 0 c-51 0 -55 -2 -55
-24 0 -13 7 -26 15 -30 11 -4 15 -21 15 -65 0 -52 -3 -59 -22 -64 -12 -3 -25
-4 -30 -1 -4 3 -8 48 -8 100 l0 94 -42 -1 c-24 -1 -51 -3 -60 -6z"/>
<path d="M3900 3065 c0 -16 6 -25 15 -25 12 0 15 -14 15 -69 0 -52 -4 -70 -15
-75 -8 -3 -15 -14 -15 -24 0 -15 10 -21 46 -26 78 -10 94 -8 94 13 0 11 -4 23
-10 26 -5 3 -10 35 -10 70 l0 65 24 -12 c33 -14 56 -4 56 25 0 34 -23 50 -65
45 -19 -2 -35 0 -35 4 0 4 -22 8 -50 8 -47 0 -50 -2 -50 -25z"/>
<path d="M2390 3068 c-97 -52 -87 -202 16 -236 33 -11 45 -11 80 3 39 15 74
50 74 74 0 16 -34 23 -45 8 -5 -7 -20 -19 -33 -26 -50 -27 -98 46 -73 112 13
33 38 35 50 3 12 -29 36 -39 62 -26 24 13 24 41 1 70 -22 27 -95 37 -132 18z"/>
<path d="M1711 3044 c-42 -30 -7 -105 37 -78 9 6 18 25 20 42 4 40 -25 58 -57
36z"/>
<path d="M2122 3020 c-96 -59 -49 -230 63 -230 40 0 89 27 108 59 9 15 14 31
10 35 -13 13 -43 5 -53 -13 -22 -43 -80 -31 -93 19 -4 16 5 20 64 30 75 13 80
19 54 70 -28 54 -93 66 -153 30z m85 -46 c2 -6 -9 -14 -24 -17 -34 -6 -40 -2
-23 18 14 17 41 17 47 -1z"/>
<path d="M1971 2996 c-13 -7 -31 -11 -40 -9 -9 2 -33 -3 -54 -12 -40 -17 -51
-49 -19 -58 31 -8 46 -130 17 -141 -17 -6 -20 -32 -5 -41 5 -3 27 -2 47 4 21
5 50 12 66 15 18 4 27 13 27 26 0 11 -6 20 -14 20 -21 0 -24 8 -31 76 l-7 61
29 -4 c40 -6 60 18 45 52 -13 28 -26 30 -61 11z"/>
<path d="M4490 2983 c0 -9 6 -24 14 -32 18 -21 10 -131 -10 -131 -8 0 -14 -10
-14 -24 0 -20 7 -25 57 -35 31 -6 60 -11 65 -11 11 0 10 38 -2 45 -5 3 -10 30
-10 60 0 57 19 89 49 83 13 -3 16 -16 14 -73 -2 -38 -8 -72 -14 -75 -6 -4 -9
-16 -7 -26 3 -17 16 -22 103 -38 17 -3 55 -12 85 -20 30 -9 61 -16 68 -16 17
0 15 47 -2 53 -11 5 -13 22 -9 84 5 73 4 81 -18 106 -19 22 -33 28 -69 28 -25
1 -49 0 -55 -2 -5 -2 -22 5 -38 15 -20 13 -38 17 -67 13 -22 -3 -40 -1 -40 4
0 5 -22 9 -50 9 -40 0 -50 -3 -50 -17z m303 -145 c-1 -82 -18 -107 -46 -72
-14 19 -17 34 -12 71 9 69 12 75 37 71 21 -3 23 -8 21 -70z"/>
<path d="M1405 2952 c-73 -23 -90 -31 -90 -47 0 -13 8 -21 23 -23 12 -2 22 -5
22 -6 0 -2 9 -50 21 -106 19 -95 20 -105 5 -115 -21 -16 -20 -45 2 -45 33 1
187 50 211 68 50 37 66 70 66 135 0 149 -82 193 -260 139z m151 -59 c9 -14 19
-52 21 -84 5 -55 4 -60 -26 -89 -48 -49 -62 -39 -83 60 -25 123 -24 138 10
142 41 5 59 -2 78 -29z"/>
<path d="M1723 2940 c-30 -13 -43 -25 -43 -40 0 -11 7 -20 15 -20 18 0 22 -8
34 -73 7 -37 5 -51 -5 -62 -18 -18 -18 -45 0 -45 37 0 119 25 124 38 3 8 -5
22 -17 31 -15 12 -24 34 -31 81 -14 89 -19 110 -28 110 -4 0 -26 -9 -49 -20z"/>
<path d="M4930 2891 c0 -12 7 -24 16 -28 14 -5 15 -18 10 -92 -9 -120 -14
-138 -37 -144 -42 -11 -17 -39 51 -58 36 -10 68 -18 73 -19 11 0 9 38 -3 45
-5 3 -10 19 -10 35 0 28 0 28 30 13 71 -35 130 16 130 111 0 50 -4 61 -33 92
-27 29 -41 37 -73 38 -21 0 -42 5 -45 10 -4 5 -30 11 -58 14 -47 4 -51 3 -51
-17z m179 -85 c16 -34 1 -100 -25 -110 -33 -13 -48 9 -45 65 1 30 8 60 13 67
17 20 41 10 57 -22z"/>
<path d="M5263 2808 c-33 -16 -40 -48 -15 -69 l21 -16 -24 -11 c-30 -14 -42
-55 -26 -88 13 -29 74 -58 104 -50 12 3 31 -3 45 -15 25 -19 77 -26 86 -11 3
5 -4 19 -15 31 -18 19 -19 29 -13 90 7 80 -1 102 -50 125 -48 22 -87 27 -113
14z m97 -79 c0 -15 -5 -19 -16 -15 -9 3 -26 6 -40 6 l-24 0 22 25 c16 19 25
22 39 14 11 -5 19 -19 19 -30z m-10 -74 c0 -20 -5 -25 -24 -25 -30 0 -42 16
-26 35 21 25 50 19 50 -10z"/>
<path d="M5520 2705 c-35 -38 -39 -119 -8 -164 45 -66 145 -93 183 -51 17 19
17 22 3 36 -13 13 -19 14 -36 3 -16 -10 -26 -10 -46 -1 -33 15 -47 50 -37 94
10 45 19 58 36 58 15 0 38 -34 29 -43 -3 -3 0 -15 6 -27 16 -30 64 -24 68 8
12 82 -140 149 -198 87z"/>
<path d="M5822 2695 c-8 -17 -20 -25 -37 -25 -20 0 -25 -5 -25 -24 0 -13 6
-26 13 -29 11 -4 12 -19 2 -83 -9 -54 -10 -85 -3 -100 18 -39 98 -59 137 -35
21 13 -4 51 -34 51 -28 0 -29 7 -19 84 l7 48 33 -7 c30 -5 34 -3 34 15 0 15
-9 25 -29 33 -26 10 -29 14 -24 45 9 52 -34 73 -55 27z"/>
<path d="M1923 2433 l-123 -26 0 -29 0 -28 -41 21 c-37 18 -47 19 -88 9 -25
-6 -56 -18 -68 -26 -12 -7 -28 -11 -36 -8 -8 3 -32 1 -53 -5 -22 -5 -58 -15
-82 -21 l-42 -11 21 -42 c109 -213 353 -520 554 -697 254 -223 538 -394 839
-505 138 -51 376 -110 531 -131 156 -22 508 -25 655 -6 486 64 929 251 1295
547 103 83 265 233 265 245 0 4 -10 10 -22 13 -13 2 -85 21 -161 42 -77 20
-141 34 -144 31 -3 -3 10 -27 31 -52 20 -26 36 -51 36 -56 0 -4 -28 -8 -63 -8
l-63 0 -33 -55 c-18 -30 -35 -55 -36 -55 -2 0 -13 29 -25 65 -21 62 -23 65
-63 75 -87 23 -85 18 -27 69 43 38 51 51 46 68 -4 12 -15 24 -24 27 -29 10
-91 76 -104 112 -6 19 -15 34 -19 34 -3 0 -24 -14 -45 -31 -164 -131 -417
-259 -629 -319 -310 -88 -630 -97 -935 -29 -250 57 -487 164 -705 320 -112 80
-331 297 -410 406 -70 96 -54 92 -232 56z m131 -278 l66 -10 -47 -47 -47 -47
12 -62 c6 -35 10 -64 8 -66 -2 -2 -28 8 -59 23 l-54 27 -57 -32 -57 -33 7 67
7 66 -49 50 c-32 33 -43 49 -32 49 10 0 40 5 68 11 50 11 52 12 77 70 l26 60
32 -58 32 -58 67 -10z m291 -266 c25 -48 48 -59 128 -59 l29 0 -46 -54 -46
-53 11 -57 c6 -32 8 -60 6 -62 -3 -3 -29 7 -60 22 l-54 27 -57 -32 c-31 -18
-56 -29 -56 -24 0 4 4 34 10 66 l9 57 -44 42 c-25 22 -45 44 -45 48 0 4 21 11
48 15 67 10 77 18 103 80 25 60 24 60 64 -16z m2347 -225 l49 -36 56 21 c31
12 58 19 60 17 3 -3 -2 -30 -11 -61 -18 -61 -18 -61 31 -122 l34 -43 -65 0
-66 0 -35 -55 c-20 -30 -37 -55 -39 -55 -2 0 -13 27 -25 60 l-22 60 -60 17
c-32 9 -59 19 -59 22 1 3 23 23 51 45 l50 39 -7 63 c-3 35 -3 64 1 64 4 0 30
-16 57 -36z m-1930 -48 c27 -55 46 -66 118 -66 44 0 43 -11 -4 -59 -49 -50
-48 -39 -21 -159 5 -22 5 -22 -55 8 l-62 31 -54 -30 c-29 -17 -55 -31 -57 -31
-2 0 1 29 6 65 l9 65 -46 41 c-25 22 -44 45 -41 49 3 5 31 12 61 16 l56 7 27
58 c14 32 28 58 31 59 3 0 18 -24 32 -54z m511 -210 c16 -3 42 -6 57 -6 43 0
43 -11 -1 -56 -40 -41 -42 -45 -36 -88 4 -25 10 -58 13 -72 l7 -26 -62 32 -62
31 -51 -31 c-27 -17 -52 -29 -55 -26 -3 2 0 32 5 65 l9 61 -48 45 c-52 49 -52
49 33 60 46 7 47 8 74 72 l28 65 30 -60 c24 -49 35 -61 59 -66z m946 90 l46
-34 59 24 c33 13 61 24 62 24 1 0 -6 -29 -16 -65 l-18 -64 39 -50 c21 -27 39
-52 39 -55 0 -3 -29 -6 -64 -6 l-64 0 -32 -50 c-18 -27 -35 -50 -39 -50 -3 0
-15 26 -26 57 l-20 57 -63 19 -63 18 50 40 51 41 0 64 c0 35 3 64 6 64 4 0 27
-15 53 -34z m-486 -90 c29 -55 45 -65 102 -66 55 -1 58 -13 14 -56 -41 -39
-41 -39 -34 -97 3 -32 9 -65 12 -74 4 -10 -13 -5 -56 17 l-62 31 -50 -31 c-27
-16 -52 -30 -55 -30 -3 0 -3 30 1 68 l6 67 -46 39 c-53 44 -50 51 28 61 48 7
50 8 76 66 14 32 28 58 31 59 3 0 18 -24 33 -54z"/>
<path d="M4993 2373 c-6 -16 -87 -227 -101 -263 -4 -11 -1 -11 12 3 46 45 143
10 415 -148 142 -82 304 -162 386 -190 67 -23 161 -24 202 -2 46 24 80 74 98
142 17 66 21 210 5 200 -5 -3 -86 19 -180 49 -266 87 -578 172 -808 222 -15 3
-24 -1 -29 -13z"/>
</g>
</svg>
