<?xml version="1.0" encoding="utf-8"?>
<!-- Generator: Adobe Illustrator 19.2.1, SVG Export Plug-In . SVG Version: 6.00 Build 0)  -->
<svg version="1.1" id="Layer_1" xmlns="http://www.w3.org/2000/svg" xmlns:xlink="http://www.w3.org/1999/xlink" x="0px" y="0px"
	 viewBox="0 0 288 288" style="enable-background:new 0 0 288 288;" xml:space="preserve">
<style type="text/css">
	.st0{clip-path:url(#SVGID_2_);}
	.st1{fill:#3176AF;stroke:#FFFFFF;stroke-width:4;stroke-miterlimit:10;}
	.st2{fill:#3176AF;}
	.st3{fill:#3075AE;stroke:#FFFFFF;stroke-miterlimit:10;}
	.st4{fill:#3176AF;stroke:#FFFFFF;stroke-miterlimit:10;}
	.st5{fill:none;stroke:#FFFFFF;stroke-miterlimit:10;}
	.st6{fill:#333232;}
	.st7{font-family:'BookmanDemi';}
	.st8{font-size:24.9078px;}
	.st9{fill:none;stroke:#3277B0;stroke-width:5;stroke-miterlimit:10;}
	.st10{fill:#FBB040;}
</style>
<g>
	<defs>
		<path id="SVGID_1_" d="M118.3,140.6c-8.3,2.4-16.5,4.8-24.8,7.2c0,11.5,0,23.1,0,34.6c2.4,0,4.8,0,7.2,0c0-9.3,0-18.7,0-28
			c0.1-0.3,1.6-3.7,4.2-3.6c2.5,0,3.9,3.3,4.1,3.6c0,9.3,0,18.6-0.1,27.9c3.2,0,6.4,0.1,9.6,0.1c0-9.3,0-18.6,0-27.9
			c0.8-2.8,2.4-4.5,4.2-4.6c1.8,0,3.5,1.8,4.3,4.7c-0.1,9.3-0.1,18.5-0.2,27.8c0,0,0.8,0,0.8,0c0.2,0,8.6,0,8.7,0c0-10,0-20,0-30
			c0.1-0.3,1.6-3.6,4.2-3.5c2.5,0.1,3.9,3.2,4,3.5c0,10,0.1,20,0.1,30.1c3.1,0,6.2,0,9.3,0c0-9.7,0-19.5,0-29.2
			c0.1-0.3,1.5-4.1,4.2-4.2c1.8-0.1,3.5,1.5,4.4,4.2c0,9.7,0.1,19.5,0.1,29.2c3.1,0,6.2,0,9.2,0c0-9-0.1-17.9-0.1-26.9
			c0.5-3.3,2.2-5.5,4.1-5.6c2,0,3.8,2.4,4.2,5.9c0,8.9,0.1,17.7,0.1,26.6c2.4,0,4.8-0.1,7.3-0.1c0-11.1,0-22.1,0-33.2
			c-14-2.2-28-4.3-42-6.5c-2.6,0.3-5.2,0.5-7.9,0.8c-2.4-0.1-4.7-0.1-7.1-0.2C126.5,142.3,122.4,141.5,118.3,140.6z"/>
	</defs>
	<use xlink:href="#SVGID_1_"  style="overflow:visible;fill:#3176AF;"/>
	<clipPath id="SVGID_2_">
		<use xlink:href="#SVGID_1_"  style="overflow:visible;"/>
	</clipPath>
	<g class="st0">
		<path class="st1" d="M92.5,120.9v62.5l106.6-1.1v-61.4c-18.4-3.2-36.9-6.4-55.3-9.5C126.7,114.5,109.6,117.7,92.5,120.9z"/>
	</g>
</g>
<rect x="79.3" y="188" class="st2" width="125.6" height="17.7"/>
<path class="st3" d="M123.6,106c-6.3,3-12.6,5.9-19,8.9c0,9.9,0,19.8,0,29.7c1.9,0,3.8,0,5.8,0c0-8,0-16,0-24
	c0.1-0.3,1.3-3.1,3.3-3.1c2,0,3.1,2.8,3.3,3.1c0,8,0,15.9-0.1,23.9c2.5,0,5.1,0,7.6,0.1c0-8,0-15.9,0-23.9c0.6-2.4,1.9-3.9,3.3-3.9
	c1.5,0,2.8,1.5,3.4,4c0,7.9-0.1,15.8-0.1,23.8c0,0,0.7,0,0.7,0c0.1,0,6.8,0,6.9,0c0-8.6,0-17.1,0-25.7c0.1-0.3,1.3-3.1,3.3-3
	c2,0,3.1,2.7,3.2,3c0,8.6,0.1,17.2,0.1,25.7c2.5,0,5,0,7.4,0c0-8.3,0-16.7,0-25c0.1-0.2,1.2-3.5,3.3-3.6c1.4-0.1,2.8,1.3,3.5,3.6
	c0,8.3,0.1,16.7,0.1,25c2.5,0,4.9,0,7.4,0c0-7.7,0-15.3-0.1-23c0.4-2.8,1.7-4.7,3.2-4.8c1.6,0,3,2.1,3.4,5c0,7.6,0.1,15.2,0.1,22.8
	c1.9,0,3.9-0.1,5.8-0.1c0-9.5,0-19,0-28.4c-11.2-8.8-22.4-17.5-33.6-26.3c-0.7,1.4-1.5,2.8-2.2,4.2c-2.7,1-5.3,1.9-8,2.9
	C131.6,99.9,127.6,102.9,123.6,106z"/>
<rect x="114.4" y="173.7" class="st2" width="57.3" height="21.6"/>
<path class="st2" d="M191.2,181.9c0.1,8.3,0.2,16.6,0.3,24.9c-9.6-2.7-19.3-5.5-28.9-8.2c0-8.3,0-16.5-0.1-24.8
	C172.1,176.5,181.6,179.2,191.2,181.9z"/>
<path class="st4" d="M112.2,108.5c-1.3,0.2-7,1.3-8.9,5.2c-0.4,0.8-1.2,2.4-0.4,3.6c0.4,0.8,1.3,1.1,1.7,1.2
	c2.5-1.1,6.2-2.7,10.9-4.1c22.3-6.7,42.3-2.3,51.9,0c3.7,0.8,7.7,2,12.1,3.4c0.5-0.2,1.2-0.7,1.5-1.5c0.5-1.4-0.9-3-1.6-3.9
	c-3-3.4-7-4.6-7.5-4.7c-20.4-5.8-30.3-5.5-30.3-5.5C129.6,102.5,119.6,105.5,112.2,108.5z"/>
<path class="st2" d="M93.2,186.5v20.6l29.4-14.6c0-6.4,0.1-12.9,0.1-19.3c-8.5,2.5-17,4.9-25.5,7.4C96,182.5,94.6,184.5,93.2,186.5z
	"/>
<path class="st4" d="M93.2,178.6c0,0,52.2-21.5,98.1,0v7.9c0,0-38.9-25.9-98.1,0V178.6z"/>
<path class="st2" d="M135.1,78.4c-3.5,1.5-7.8,3.8-12.1,7.6c-10.1,8.8-13.5,19.8-14.7,24.8c3.4-0.8,8.5-1.9,14.8-2.8
	c17.4-2.3,30.8-0.9,35.4-0.3c4.1,0.5,9.8,1.5,16.5,3.2c-1-4.6-4.3-16.2-14.8-25.1c-4.5-3.8-9.1-6.1-12.7-7.4
	C143.4,78.4,139.2,78.4,135.1,78.4z"/>
<path class="st2" d="M134.3,63.5V78c1.2,0.5,2.4,1,3.6,1.5c0-3.7,0-7.5,0-11.2c2.6,0,5.1,0,7.7,0c0,3.7,0.1,7.3,0.1,11
	c1.2-0.4,2.4-0.9,3.7-1.3c0-5.3,0-10.6,0-15.9L134.3,63.5z"/>
<path class="st2" d="M141.4,51.9c-1.1,0.1-2.6,0.5-4.1,1.5c-4.8,3.2-4.5,9.8-4.5,10.4c-0.4,0.2-2.2,1-2.1,1.8
	c0.1,0.6,1.2,0.9,1.6,1.1c3.2,0.9,15,0.3,18.8,0.1c0.7-0.2,1.2-0.6,1.3-1c0.1-0.6-0.8-1.4-2.2-1.5c0.1-1.2,0.2-3.6-1-6.1
	C147.1,53.4,142.2,52.1,141.4,51.9z"/>
<circle class="st2" cx="141.4" cy="51.3" r="2.8"/>
<path class="st2" d="M134.3,78c-0.1,0-0.9,0.1-1.4,0.8c-0.6,0.8-0.4,1.6-0.3,1.7c6.3,0,12.5,0.1,18.8,0.1c0-0.2,0-0.9-0.5-1.6
	c-0.6-0.8-1.4-1-1.6-1"/>
<path class="st2" d="M94.8,144.4c7.5-2.9,16.5-5.6,27-7.2c28.7-4.3,52.4,2.3,65.6,7.2c0,2.9,0.1,5.8,0.1,8.8
	c-7.4-2.6-16.1-4.9-26-6.2c-28.9-3.9-52.8,2.6-66.7,7.8V144.4z"/>
<path class="st5" d="M92.8,150.4c0,0,49.1-21.2,95.4,0"/>
<polygon class="st4" points="142.3,183 70.5,208.7 213.8,208.7 "/>
<text transform="matrix(1.015 0 0 1 79.272 232.2881)" class="st6 st7 st8">FAX2DC</text>
<rect x="140" y="143.6" class="st2" width="12.8" height="4.1"/>
<line class="st9" x1="17.4" y1="226.8" x2="68.5" y2="226.9"/>
<g>
	<polygon class="st10" points="30.3,221.6 25.4,218.9 20.6,221.7 21.4,216 17.4,212 22.8,211 25.2,205.7 27.7,210.9 33.1,211.7 
		29.3,215.8 	"/>
	<polygon class="st10" points="48,221.6 43.1,218.9 38.3,221.7 39.1,216 35.1,212 40.5,211 42.8,205.7 45.4,210.9 50.8,211.7 
		47,215.8 	"/>
	<polygon class="st10" points="65.7,221.6 60.8,218.9 56,221.7 56.8,216 52.8,212 58.2,211 60.5,205.7 63.1,210.9 68.5,211.7 
		64.7,215.8 	"/>
</g>
<line class="st9" x1="215.9" y1="227.2" x2="267" y2="227.4"/>
<g>
	<polygon class="st10" points="228.8,221.6 223.9,218.9 219.1,221.7 219.9,216 215.9,212 221.3,211 223.7,205.7 226.2,210.9 
		231.6,211.7 227.8,215.8 	"/>
	<polygon class="st10" points="246.5,221.6 241.6,218.9 236.8,221.7 237.6,216 233.6,212 239,211 241.3,205.7 243.9,210.9 
		249.3,211.7 245.4,215.8 	"/>
	<polygon class="st10" points="264.2,221.6 259.3,218.9 254.5,221.7 255.3,216 251.3,212 256.7,211 259,205.7 261.6,210.9 
		267,211.7 263.1,215.8 	"/>
</g>
</svg>
