<?xml version="1.0" encoding="utf-8"?>
<!-- Generator: Adobe Illustrator 19.2.1, SVG Export Plug-In . SVG Version: 6.00 Build 0)  -->
<svg version="1.1" id="Layer_1" xmlns="http://www.w3.org/2000/svg" xmlns:xlink="http://www.w3.org/1999/xlink" x="0px" y="0px"
	 viewBox="0 0 288 288" style="enable-background:new 0 0 288 288;" xml:space="preserve">
<style type="text/css">
	.st0{fill:#AA3A33;stroke:#AA3A33;stroke-miterlimit:10;}
	.st1{fill:#D8CCCC;stroke:#D7CCCC;stroke-miterlimit:10;}
	.st2{fill:#B3B3B7;}
	.st3{fill:#CCCCCE;}
	.st4{fill:#E8E8EC;}
	.st5{fill:#453492;}
</style>
<g>
	
		<ellipse transform="matrix(0.9995 -3.083048e-02 3.083048e-02 0.9995 -4.3194 4.734)" class="st0" cx="151.4" cy="142.4" rx="106.1" ry="107.6"/>
	
		<ellipse transform="matrix(0.9995 -3.083048e-02 3.083048e-02 0.9995 -4.3194 4.734)" class="st1" cx="151.4" cy="142.4" rx="78.3" ry="79.3"/>
</g>
<polygon class="st1" points="62.9,151.9 58.5,149.7 54.3,152.2 54.9,147.2 51.3,143.8 56.1,143 58.2,138.4 60.5,142.8 65.3,143.4 
	61.9,147 "/>
<polygon class="st1" points="66.3,172.9 61.9,170.7 57.7,173.1 58.3,168.2 54.7,164.8 59.5,163.9 61.6,159.3 63.9,163.8 68.7,164.4 
	65.3,168 "/>
<polygon class="st1" points="73.8,190.8 69.4,188.6 65.2,191.1 65.9,186.1 62.3,182.7 67.1,181.9 69.1,177.3 71.4,181.7 76.2,182.3 
	72.9,185.9 "/>
<polygon class="st1" points="99.6,221.7 95.2,219.5 91,221.9 91.7,217 88.1,213.6 92.9,212.7 94.9,208.2 97.2,212.6 102.1,213.2 
	98.7,216.8 "/>
<polygon class="st1" points="117.1,233.3 112.7,231.1 108.4,233.5 109.1,228.6 105.5,225.2 110.3,224.3 112.4,219.8 114.6,224.2 
	119.5,224.8 116.1,228.4 "/>
<polygon class="st1" points="135.7,239.5 131.3,237.3 127.1,239.8 127.8,234.8 124.2,231.4 129,230.6 131,226 133.3,230.4 
	138.1,231 134.7,234.6 "/>
<polygon class="st1" points="157,242 152.6,239.8 148.4,242.3 149.1,237.3 145.5,233.9 150.3,233 152.3,228.5 154.6,232.9 
	159.4,233.5 156.1,237.1 "/>
<polygon class="st1" points="83.9,208.5 79.5,206.3 75.3,208.8 75.9,203.8 72.3,200.4 77.2,199.5 79.2,195 81.5,199.4 86.3,200 
	82.9,203.6 "/>
<polygon class="st1" points="180,226.5 178.6,231.3 181.7,235.2 176.8,235.3 174.1,239.5 172.5,234.8 167.8,233.5 171.7,230.4 
	171.4,225.4 175.4,228.3 "/>
<polygon class="st1" points="199.6,219.7 198.2,224.5 201.2,228.4 196.3,228.5 193.7,232.7 192,228 187.3,226.7 191.2,223.6 
	191,218.6 195,221.5 "/>
<polygon class="st1" points="215.6,209.2 214.2,214 217.2,217.9 212.3,218 209.7,222.2 208.1,217.4 203.4,216.1 207.2,213.1 
	207,208.1 211,210.9 "/>
<polygon class="st1" points="239.5,177.2 238.1,182 241.2,185.9 236.3,186 233.6,190.2 232,185.5 227.3,184.2 231.2,181.1 
	231,176.1 235,179 "/>
<polygon class="st1" points="245.8,157.9 244.4,162.7 247.5,166.6 242.6,166.7 240,170.9 238.3,166.2 233.6,164.9 237.5,161.8 
	237.3,156.8 241.3,159.7 "/>
<polygon class="st1" points="248.4,138.1 247,142.9 250.1,146.8 245.2,146.9 242.5,151.1 240.9,146.4 236.2,145.1 240.1,142 
	239.8,137 243.8,139.9 "/>
<polygon class="st1" points="246.6,116.7 245.2,121.5 248.3,125.4 243.4,125.5 240.7,129.7 239.1,125 234.4,123.7 238.3,120.6 
	238,115.6 242.1,118.5 "/>
<polygon class="st1" points="230.9,196.1 229.5,200.9 232.6,204.8 227.7,204.9 225,209.1 223.4,204.4 218.7,203.1 222.6,200 
	222.3,195 226.3,197.9 "/>
<polygon class="st1" points="230.8,98.5 235.7,98.8 238.7,94.8 239.9,99.6 244.5,101.3 240.5,104 240.3,109 236.5,105.9 
	231.9,107.3 233.6,102.6 "/>
<polygon class="st1" points="219.7,80.6 224.5,80.9 227.5,76.9 228.8,81.7 233.4,83.4 229.3,86.1 229.2,91.2 225.4,88 220.7,89.4 
	222.4,84.8 "/>
<polygon class="st1" points="205.8,67.2 210.7,67.4 213.7,63.4 214.9,68.3 219.5,69.9 215.5,72.7 215.3,77.7 211.5,74.6 206.9,76 
	208.6,71.3 "/>
<polygon class="st1" points="170.5,47.9 175.4,48.1 178.4,44.2 179.7,49 184.3,50.7 180.2,53.4 180.1,58.4 176.3,55.3 171.6,56.7 
	173.3,52 "/>
<polygon class="st1" points="150,44.4 154.9,44.7 157.9,40.7 159.2,45.5 163.8,47.2 159.7,49.9 159.6,54.9 155.8,51.8 151.1,53.2 
	152.8,48.6 "/>
<polygon class="st1" points="130.3,45.7 135.2,46 138.1,42 139.4,46.8 144,48.5 139.9,51.2 139.8,56.2 136,53.1 131.3,54.5 
	133.1,49.8 "/>
<polygon class="st1" points="189.8,55 194.7,55.3 197.6,51.3 198.9,56.1 203.5,57.8 199.4,60.5 199.3,65.5 195.5,62.4 190.8,63.8 
	192.6,59.1 "/>
<polygon class="st1" points="114.1,60.3 115.1,55.4 111.6,51.8 116.5,51.2 118.7,46.8 120.8,51.3 125.6,52.2 122,55.6 122.7,60.5 
	118.5,58.1 "/>
<polygon class="st1" points="82.4,79 83.3,74.1 79.9,70.5 84.7,69.9 87,65.5 89,70 93.9,70.9 90.3,74.3 91,79.2 86.7,76.8 "/>
<polygon class="st1" points="61.8,111.9 62.7,107 59.3,103.4 64.2,102.8 66.4,98.3 68.5,102.9 73.3,103.7 69.7,107.1 70.4,112.1 
	66.2,109.7 "/>
<polygon class="st1" points="55.4,132.2 56.3,127.2 52.9,123.7 57.8,123.1 60,118.6 62.1,123.2 66.9,124 63.3,127.4 64,132.4 
	59.8,129.9 "/>
<polygon class="st1" points="70.1,92.9 71,88 67.6,84.4 72.5,83.8 74.7,79.3 76.8,83.9 81.6,84.7 78,88.1 78.7,93.1 74.5,90.7 "/>
<polygon class="st1" points="98.2,67.7 99.1,62.8 95.7,59.2 100.5,58.6 102.8,54.2 104.9,58.7 109.7,59.6 106.1,63 106.8,68 
	102.5,65.5 "/>
<g>
	<path class="st2" d="M195.4,131.2c-5.7-0.6-11.6-1-17.6-1.2c-52.2-1.7-96.5,14.8-128.6,32.1c5.3,8,10.5,16.1,15.8,24.1
		c12.1-6.5,24.3-13,36.4-19.5c15-6.4,40.2-14.9,72.3-15.8c29-0.8,52.4,4.9,67.3,9.8c-7.8-7.2-15.5-14.3-23.3-21.5
		C210.3,136.5,202.9,133.8,195.4,131.2z"/>
	<path class="st3" d="M92.9,89.3c0,0,1.7-9.2-15.2-9.7c-16.9-0.5-61.6-8.1-66-16.7L23,86.7L4.3,98.3c0,0,34.6,20.8,47.5,19.5
		s33.6-12.3,33.6-12.3L92.9,89.3z"/>
	<path class="st2" d="M45.6,97.7c0,0-6-18.7,10.3-16.2c16.3,2.6,34.1,16.6,35.9,8.6l-1.1,34.2l-44-16L45.6,97.7z"/>
	<path class="st4" d="M46,104.8c-0.6,4.4-1.3,14,3.2,24.6c3.4,8,8.3,13.3,11.5,16.2c8.3-3.6,21-8.4,36.9-11.7
		c8.9-1.8,48.7-9.2,96.9,5.7c11.7,3.6,28.2,9.9,46.5,21.1c2.6-3,6.9-8.8,8.9-17.3c2.9-11.7-0.3-21.3-1.8-25
		C225.5,106,172.6,81,105.8,89C81.9,91.8,61.8,98.2,46,104.8z"/>
	<g>
		<g>
			<path class="st5" d="M83.3,108.7c-1.1,0.8-1.7,1.2-2.8,2c-0.5-0.3-0.7-0.4-1.2-0.6c-1-0.5-1.8-0.9-2.4-1.2
				c-0.8-0.3-1.7-0.5-2.8-0.6c-1.1-0.1-2.1-0.1-2.9,0c-0.9,0.1-1.8,0.3-2.8,0.7c-0.7,0.2-1,0.4-1.6,0.6c-0.5,0.2-0.9,0.4-1.3,0.6
				c-0.3,0.2-0.6,0.4-0.7,0.7c-0.2,0.3-0.2,0.5-0.2,0.7c0,0.2,0.1,0.4,0.2,0.7c0,0.1,0.1,0.2,0.1,0.2c0.7,1.7,1.1,2.6,1.8,4.3
				c0.9-0.4,1.4-0.5,2.3-0.9c0.6-0.2,1-0.4,1.3-0.7c0.3-0.2,0.6-0.6,0.8-1c0.2-0.3,0.2-0.7,0.2-1.1c0-0.4-0.2-0.8-0.4-1.3
				c-0.1-0.3-0.2-0.4-0.3-0.7c1.3-0.5,2-0.7,3.4-1.2c1.6,4.4,2.3,6.6,3.9,11.1c-1.3,0.4-1.9,0.6-3.2,1.1c-0.2-0.4-0.3-0.6-0.5-1
				c-0.2-0.4-0.3-0.8-0.5-1c-0.3-0.4-0.8-0.8-1.4-1c-0.3-0.1-0.7-0.1-1.2,0c-0.5,0.1-1,0.3-1.6,0.5c-0.6,0.2-0.8,0.3-1.4,0.5
				c0.9,2.2,1.3,3.2,2.2,5.4c0.1,0.4,0.3,0.6,0.4,0.8c0.1,0.2,0.4,0.3,0.7,0.4c0.4,0.2,0.9,0.2,1.3,0.2c0.3,0,0.8-0.1,1.5-0.3
				c0.3-0.1,0.5-0.2,0.8-0.3c0.4,1,0.6,1.6,1,2.6c-5.6,2.1-8.4,3.2-13.9,5.8c-0.5-1-0.8-1.6-1.3-2.6c0.2-0.1,0.4-0.2,0.6-0.3
				c0.8-0.4,1.4-1,1.7-1.7c0.2-0.4,0.3-0.8,0.2-1.1c0-0.3-0.2-0.7-0.4-1.2c-2.3-5-3.5-7.5-5.8-12.4c-0.2-0.4-0.4-0.6-0.6-0.9
				c-0.2-0.2-0.6-0.4-0.9-0.4c-0.4,0-0.7,0-1.1,0c-0.3,0.1-0.8,0.2-1.4,0.5c-0.3,0.2-0.5,0.2-0.8,0.4c-0.5-1.1-0.8-1.6-1.3-2.6
				c10-4.8,15.2-6.8,25.7-10C79.4,105,80.7,106.2,83.3,108.7z"/>
			<path class="st5" d="M115.8,119.9c-5.8,0.6-8.7,1-14.5,2.1c-0.2-1.2-0.4-1.7-0.6-2.9c0.5-0.1,0.8-0.2,1.3-0.3
				c0.4-0.1,0.8-0.2,1.1-0.3c0.3-0.1,0.5-0.3,0.7-0.5c0.2-0.2,0.2-0.4,0.2-0.6c0-0.1-0.1-0.3-0.2-0.4c-1-1.5-1.5-2.3-2.5-3.8
				c-3.7,0.7-5.5,1-9.1,1.9c-0.3,1.6-0.4,2.3-0.6,3.9c-0.1,0.3-0.1,0.6,0,0.7c0.1,0.2,0.2,0.4,0.4,0.6c0.2,0.2,0.5,0.3,1,0.3
				c0.5,0,0.8,0,1.1-0.1c0.6-0.1,0.9-0.2,1.5-0.4c0.3,1.2,0.4,1.8,0.7,3c-4.9,1.1-7.4,1.8-12.2,3.2c-0.4-1.1-0.5-1.7-0.9-2.8
				c0.8-0.3,1.5-0.8,2.1-1.4c0.4-0.4,0.7-0.8,1-1.1c0.3-0.4,0.4-0.8,0.5-1.3c1.5-8.4,2.5-12.6,4.8-21c2.8-0.6,4.2-0.9,7.1-1.4
				c5.7,7.1,8.3,10.7,13.1,18.2c0.2,0.3,0.4,0.6,0.7,0.7c0.2,0.2,0.6,0.3,1,0.4c0.6,0.2,1.3,0.3,2,0.2
				C115.7,118.1,115.7,118.7,115.8,119.9z M99.4,110.2c-1.9-2.5-2.9-3.7-4.9-6.2c-0.8,3-1.2,4.6-1.8,7.6
				C95.4,111,96.7,110.7,99.4,110.2z"/>
			<path class="st5" d="M149.7,120.1c-6.4-0.7-9.6-0.9-16-0.9c0-1.2,0-1.9,0-3.1c0.5,0,0.8,0,1.3,0c0.6,0,1.1-0.1,1.3-0.5
				c0.1-0.1,0.1-0.2,0.1-0.3c0-0.1,0-0.2-0.1-0.3c-0.1-0.1-0.2-0.3-0.3-0.4c-1.7-2.1-2.6-3.1-4.4-5.2c-1.6,2-2.4,3-3.9,5
				c-0.2,0.3-0.3,0.5-0.3,0.7c0,0.1,0,0.3,0.1,0.3c0.4,0.5,1,0.7,1.7,0.7c0.6,0,1,0,1.6,0.1c0,1.2,0,1.8,0.1,3
				c-5.1,0-7.6,0.2-12.7,0.6c-0.1-1.2-0.2-1.8-0.3-3c0.4-0.1,0.6-0.1,1.1-0.2c0.3-0.1,0.6-0.2,0.8-0.3c0.2-0.1,0.7-0.4,1.4-0.9
				c0.5-0.3,0.9-0.7,1.3-1.2c0.2-0.3,0.5-0.5,0.7-0.8c2.3-2.7,3.5-4.1,5.9-6.7c-2.8-2.8-4.2-4.2-7.2-7c-0.2-0.2-0.4-0.4-0.7-0.6
				c-0.4-0.3-0.9-0.6-1.4-0.8c-0.5-0.2-0.8-0.3-1-0.3c-0.3-0.1-0.7-0.1-1.2-0.1c-0.6,0.1-1,0.1-1.6,0.1c-0.1-1.2-0.2-1.8-0.3-3.1
				c7.3-0.6,10.9-0.8,18.2-0.7c0,1.2,0,1.8,0,3c-0.6,0-0.9,0-1.5,0.1c-0.6,0-1,0.2-1.2,0.6c0,0.1-0.1,0.2-0.1,0.3
				c0,0.2,0.1,0.3,0.2,0.5c0,0,0.1,0.1,0.2,0.3c1.5,1.6,2.2,2.4,3.6,4c1.4-1.7,2.2-2.5,3.7-4.2c0.1-0.2,0.2-0.3,0.2-0.5
				c0-0.1,0-0.2-0.1-0.3c-0.1-0.2-0.2-0.3-0.4-0.4c-0.2-0.1-0.5-0.1-0.8-0.1c-0.7-0.1-1.1-0.1-1.8-0.1c0-1.2,0-1.8,0-3
				c5.9,0.1,8.8,0.3,14.7,0.9c-0.1,1.2-0.1,1.8-0.2,2.9c-0.5,0-0.8,0.1-1.3,0.1c-0.6,0-1.1,0.1-1.6,0.3c-0.4,0.1-0.8,0.2-1.3,0.4
				c-0.7,0.3-1.3,0.6-1.8,0.9c-0.5,0.3-1,0.7-1.6,1.2c-2.1,1.9-3.2,2.9-5.2,4.9c2.8,3.1,4.2,4.7,6.7,7.9c0.4,0.5,0.8,0.9,1.3,1.3
				c0.4,0.3,0.8,0.6,1.3,0.9c0.6,0.4,1.4,0.7,2.2,0.9c0.4,0,0.6,0.1,0.9,0.1C149.9,118.2,149.8,118.9,149.7,120.1z"/>
			<path class="st5" d="M177.6,117.4c-1.8,2.7-2.7,4.1-4.4,6.9c-8.1-2.1-12.3-2.9-20.6-3.9c-0.1-1.6-0.1-2.4-0.2-4.1
				c2.7-1.2,4-1.7,6.8-2.8c1.2-0.5,2.3-1,3.3-1.4c1.4-0.7,2.8-1.6,4.1-2.5c0.9-0.7,1.6-1.3,2-1.8c0.6-0.8,1-1.7,1.2-2.9
				c0.2-1,0-1.9-0.6-2.7c-0.7-1.1-1.9-1.8-3.5-2.1c-1.2-0.2-2.3-0.2-3.4,0c-1.1,0.2-1.6,0.6-1.7,1.2c0,0.2,0,0.4-0.1,0.5
				c0.3,0.5,0.4,0.8,0.7,1.4c0.1,0.2,0.2,0.4,0.2,0.5c0,0.2,0,0.3,0,0.6c-0.1,0.8-0.6,1.4-1.4,1.8c-0.8,0.4-1.7,0.5-2.7,0.4
				c-1-0.1-1.9-0.6-2.6-1.3c-0.7-0.8-1-1.5-1-2.2c0.3-2.5,1.8-4.3,4.6-5.3c2.4-0.9,5.4-1,8.9-0.3c3.5,0.7,6.4,1.9,8.5,3.6
				c2.4,2,3.3,4.2,2.7,6.7c-0.4,1.6-1.6,3-3.4,4.2c-1.8,1.2-3.9,2.1-6.4,2.7c-3.2,0.8-4.7,1.3-7.8,2.2c3,0.5,4.4,0.8,7.4,1.4
				c0.8,0.2,1.4,0.3,1.9,0.3c0.5,0,1-0.1,1.5-0.3c0.4-0.1,0.6-0.3,0.8-0.4c0.2-0.1,0.4-0.4,0.7-0.7c0.5-0.5,0.7-0.7,1.1-1.2
				C175.7,116.4,176.3,116.7,177.6,117.4z"/>
			<path class="st5" d="M212,125.8c-1.6,3.3-4.1,5.4-7.5,6.4c-3.2,0.9-6.5,0.6-10.1-0.8c-6.4-2.6-9.7-3.8-16.3-5.7
				c0.3-1.1,0.5-1.7,0.8-2.8c0.3,0.1,0.4,0.1,0.7,0.2c0.5,0.2,1,0.2,1.3,0.2c0.4,0,0.7-0.1,1.1-0.3c0.4-0.2,0.6-0.4,0.8-0.7
				c0.1-0.3,0.3-0.7,0.5-1.2c1.6-5.4,2.4-8.1,4-13.4c0.2-0.5,0-1.1-0.4-1.6c-0.2-0.3-0.5-0.5-0.9-0.7c-0.4-0.2-0.8-0.4-1.3-0.5
				c-0.3-0.1-0.5-0.1-0.8-0.2c0.3-1.2,0.5-1.8,0.8-2.9c7,2,10.5,3.2,17.4,5.9c4.4,1.8,7.7,4.4,9.6,7.6
				C213.6,118.7,213.7,122.3,212,125.8z M204.5,114.6c-0.5-1.2-1.2-2.1-2.1-2.7c-0.8-0.6-2.2-1.3-4-2c-1.3-0.5-2.1-0.7-2.5-0.6
				c-0.4,0.1-0.7,0.5-1,1.3c-1.9,5.5-2.8,8.2-4.7,13.6c-0.3,0.7-0.3,1.3-0.1,1.6c0.2,0.3,0.7,0.6,1.6,1c1.3,0.5,2.3,0.8,3,0.9
				c0.7,0.1,1.7,0.1,2.9,0c1.2-0.1,2.4-0.7,3.7-1.9c1.3-1.2,2.3-2.6,3-4.3c0.5-1.2,0.8-2.4,0.8-3.6
				C205.2,116.8,205,115.7,204.5,114.6z"/>
			<path class="st5" d="M237.2,147.5c-2.5,1.3-5,1.8-7.5,1.5c-2.7-0.3-5.5-1.4-8.5-3.3c-3.6-2.3-6-5.2-7.3-8.8
				c-1.3-3.7-1.3-7.1,0.3-10.3c1.8-3.5,4.5-5.6,8.4-6.2c3.7-0.5,7.7,0.5,11.8,3.1c1.3,0.9,2.4,1.7,3.2,2.5c0.8,0.8,1.7,1.8,2.5,3.1
				c0.4-0.2,0.6-0.3,1-0.4c0.9,0.6,1.3,0.9,2.2,1.6c-0.5,3.8-0.9,5.8-1.6,9.5c-1.4-0.5-2.1-0.8-3.5-1.3c0-1.2,0-1.7-0.1-2.9
				c-0.1-1.8-0.4-3.4-1.2-4.8c-0.8-1.5-2-2.8-3.6-3.9c-2.4-1.6-4.8-1.9-7.1-0.9c-1.9,0.8-3.4,2.3-4.6,4.5c-1.3,2.4-1.9,4.6-1.8,6.6
				c0.1,2.6,1.4,4.6,3.9,6.2c1.9,1.2,3.9,1.9,6,2.1c2,0.1,3.8-0.2,5.4-1.2C236.1,145.5,236.5,146.1,237.2,147.5z"/>
		</g>
	</g>
	<g>
		<g>
			<path class="st3" d="M201,202c0,0-3.1,8.3,12.8,11.4c15.9,3.2,57.1,17.2,59.9,26l-6.7-23.9l19.7-7.8c0,0-29.3-24.8-41.9-25.7
				s-34,6.1-34,6.1L201,202z"/>
			<path class="st2" d="M247.4,201.6c0,0,2.5,18.3-12.5,13.4c-15-5-29.6-20.8-32.7-13.7l6.8-31.6l39.1,21.8L247.4,201.6z"/>
		</g>
		<path class="st4" d="M48.5,160.9c-0.8,3.3-1.6,8.9-0.4,15.5c1.4,8.3,5.3,14.2,7.5,17.1c20.4-5.6,38.2-8.3,51.6-9.6
			c16.5-1.7,50.7-3.8,92.9,4.5c19.4,3.8,35.4,8.8,47,12.9c1.7-4.2,3.6-10.3,4.1-17.8c0.3-4.5,0-8.4-0.4-11.7
			c-20-8.7-38-13.8-52-16.9c-8.6-1.9-47-9.9-98.1-4.2C85.5,152.5,67.9,155.5,48.5,160.9z"/>
		<g>
			<g>
				<path class="st5" d="M68.5,170.7c0.3,2,0.1,3.7-0.8,5.2c-0.8,1.4-2.1,2.3-3.7,2.8c-3,0.8-4.4,1.2-7.4,2.1
					c-0.1-0.6-0.2-0.9-0.3-1.5c0.1,0,0.2-0.1,0.3-0.1c0.2-0.1,0.4-0.1,0.6-0.2c0.1-0.1,0.3-0.2,0.4-0.4c0.1-0.2,0.1-0.4,0.1-0.5
					c0-0.2,0-0.4-0.1-0.7c-0.6-3-0.9-4.4-1.5-7.4c-0.1-0.3-0.2-0.5-0.5-0.7c-0.1-0.1-0.3-0.1-0.4-0.1c-0.2,0-0.3,0-0.6,0.1
					c-0.1,0-0.2,0.1-0.3,0.1c-0.1-0.6-0.2-1-0.3-1.6c2.8-0.8,4.2-1.2,7-2c1.8-0.5,3.4-0.3,4.8,0.5C67.2,167.1,68.2,168.6,68.5,170.7
					z M63.4,168.1c-0.5-0.4-0.9-0.6-1.3-0.6c-0.4,0-1,0-1.8,0.2c-0.5,0.1-0.8,0.3-0.9,0.5c-0.1,0.2-0.1,0.5,0,0.9
					c0.6,3,0.9,4.6,1.5,7.6c0.1,0.4,0.2,0.7,0.3,0.8c0.1,0.1,0.4,0.1,0.8,0c0.6-0.2,1-0.3,1.3-0.5c0.3-0.2,0.6-0.4,1-0.9
					c0.4-0.4,0.7-1.1,0.8-2c0.1-0.9,0.1-1.8-0.1-2.8c-0.1-0.7-0.3-1.3-0.6-1.9C64.1,168.9,63.8,168.5,63.4,168.1z"/>
				<path class="st5" d="M76.1,175.7c-2.2,0.5-3.3,0.7-5.5,1.3c-0.1-0.6-0.2-0.9-0.3-1.5c0.2-0.1,0.3-0.1,0.5-0.2
					c0.2-0.1,0.3-0.1,0.4-0.2c0.1-0.1,0.2-0.2,0.2-0.3c0.1-0.1,0.1-0.3,0.1-0.4c0-0.1,0-0.3,0-0.4c-0.3-1.5-0.4-2.3-0.7-3.9
					c0-0.3-0.2-0.5-0.4-0.6c-0.1-0.1-0.2-0.1-0.3-0.1c-0.1,0-0.2,0-0.4,0c-0.2,0-0.2,0-0.4,0c-0.1-0.6-0.2-0.9-0.3-1.5
					c0.2,0,0.3-0.1,0.5-0.2c0.2-0.1,0.4-0.2,0.8-0.3c0.4-0.1,0.7-0.3,0.9-0.4c0.3-0.1,0.5-0.3,0.8-0.4c0.5-0.1,0.7-0.2,1.2-0.3
					c0.5,2.7,0.7,4.1,1.1,6.8c0,0.3,0.1,0.4,0.1,0.5c0,0.1,0.1,0.2,0.2,0.3c0.1,0.1,0.2,0.1,0.3,0.2c0.1,0,0.2,0,0.4,0
					c0.2,0,0.3,0,0.4,0C76,174.8,76,175.1,76.1,175.7z M72.9,163.9c0.1,0.5,0,1-0.3,1.4c-0.3,0.4-0.6,0.7-1.1,0.8
					c-0.5,0.1-0.9,0-1.3-0.3c-0.4-0.3-0.6-0.7-0.7-1.2c-0.1-0.5,0-1,0.3-1.4c0.3-0.4,0.7-0.7,1.2-0.8c0.5-0.1,0.9,0,1.3,0.3
					C72.6,163.1,72.8,163.4,72.9,163.9z"/>
				<path class="st5" d="M83.8,165.7c0,0.3,0,0.5,0,0.7c-0.1,0.2-0.2,0.4-0.4,0.6c-0.1,0.1-0.2,0.2-0.4,0.3
					c-0.1,0.1-0.3,0.1-0.5,0.2c-0.1,0-0.2,0-0.3,0c-0.1,0-0.2,0-0.3-0.1c-0.3-0.1-0.5-0.2-0.8-0.3c-0.1,0-0.2,0-0.3,0
					c0,0-0.1,0-0.1,0c0,0-0.1,0-0.1,0.1c-0.1,0.1-0.2,0.2-0.2,0.4c0.3,1.7,0.4,2.6,0.6,4.3c0,0.2,0.1,0.4,0.1,0.5
					c0.1,0.1,0.2,0.3,0.3,0.3c0.1,0.1,0.2,0.1,0.3,0.1c0.1,0,0.2,0,0.3,0c0.2,0,0.2,0,0.4,0c0.1,0.6,0.1,1,0.2,1.6
					c-2.3,0.4-3.4,0.7-5.7,1.2c-0.1-0.6-0.1-0.9-0.2-1.5c0.2-0.1,0.3-0.1,0.5-0.2c0.1,0,0.2-0.1,0.3-0.1c0.1,0,0.1-0.1,0.3-0.2
					s0.2-0.2,0.2-0.3c0.1-0.1,0.1-0.3,0.1-0.4c-0.3-1.8-0.4-2.7-0.7-4.5c0-0.1,0-0.2-0.1-0.2c0-0.1-0.1-0.1-0.2-0.2
					c-0.1-0.1-0.2-0.1-0.3-0.2c-0.1,0-0.3,0-0.5,0c-0.2,0-0.2,0-0.4,0c-0.1-0.6-0.1-0.9-0.2-1.6c0.2,0,0.4-0.1,0.6-0.2
					c0.2-0.1,0.5-0.2,0.9-0.3c0.4-0.1,0.7-0.2,0.9-0.3c0.2-0.1,0.5-0.2,0.8-0.3c0.3-0.1,0.5-0.1,0.8-0.2c0.1,0.4,0.1,0.6,0.1,0.9
					c0.2-0.2,0.3-0.3,0.6-0.5c0.3-0.2,0.6-0.5,0.9-0.6c0.4-0.2,0.7-0.3,1-0.3c0.4-0.1,0.8,0,1.1,0.2
					C83.6,164.9,83.8,165.3,83.8,165.7z"/>
				<path class="st5" d="M94.9,169.5c-0.2,0.4-0.3,0.6-0.5,1c-0.4,0.8-0.9,1.4-1.5,1.8c-0.5,0.4-1.2,0.6-2.1,0.8
					c-1.3,0.2-2.5-0.1-3.6-0.9c-1.1-0.8-1.7-2-2-3.4c-0.2-1.4,0-2.7,0.7-3.7c0.7-1.1,1.8-1.8,3.2-2c0.9-0.1,1.7-0.1,2.4,0.1
					c0.7,0.2,1.3,0.6,1.8,1.2c0.2,0.3,0.4,0.7,0.6,1.2c0.2,0.5,0.3,1.1,0.4,1.7c-2.3,0.3-3.5,0.5-5.8,0.9c0,0.2,0,0.3,0.1,0.5
					c0.1,0.8,0.4,1.4,0.8,1.9c0.4,0.5,1,0.7,1.6,0.6c0.5-0.1,0.9-0.3,1.3-0.7c0.3-0.3,0.6-0.7,0.8-1.1c0.1-0.2,0.1-0.3,0.2-0.4
					C94,169.2,94.3,169.3,94.9,169.5z M91.2,166.2c0-0.1,0-0.2-0.1-0.4c-0.1-0.3-0.2-0.5-0.5-0.7c-0.3-0.2-0.6-0.2-0.9-0.2
					c-0.3,0.1-0.6,0.2-0.9,0.5c-0.2,0.2-0.4,0.5-0.4,0.9c0,0.1,0,0.2,0,0.4C89.5,166.4,90.1,166.3,91.2,166.2z"/>
				<path class="st5" d="M105.3,168.2c-0.1,0.2-0.1,0.4-0.2,0.6c-0.3,0.9-0.9,1.6-1.8,2.1c-0.7,0.4-1.4,0.6-2.3,0.8
					c-1.4,0.2-2.6-0.1-3.5-0.8c-1-0.8-1.7-2-1.9-3.7c-0.2-1.4,0.1-2.7,0.9-3.8c0.8-1.1,1.9-1.8,3.4-2c1.1-0.1,2,0,2.9,0.4
					c1,0.5,1.5,1.1,1.6,2c0.1,0.5,0,0.9-0.3,1.2c-0.2,0.3-0.6,0.5-1,0.6c-0.4,0-0.8,0-1.1-0.2c-0.3-0.2-0.5-0.5-0.6-0.9
					c0-0.3,0-0.4-0.1-0.7c0-0.2-0.2-0.4-0.4-0.5c-0.3-0.1-0.5-0.2-0.8-0.1c-0.5,0.1-0.9,0.5-1.1,1.2c-0.2,0.7-0.3,1.4-0.2,2.2
					c0.1,1,0.3,1.7,0.7,2.1c0.4,0.6,1.1,0.9,1.9,0.8c0.5-0.1,1-0.3,1.4-0.6c0.4-0.4,0.7-0.7,0.8-1.1c0-0.2,0.1-0.3,0.1-0.4
					C104.4,167.8,104.7,168,105.3,168.2z"/>
				<path class="st5" d="M114,168.6c-0.2,0.2-0.3,0.4-0.5,0.6c-0.2,0.2-0.4,0.4-0.6,0.6c-0.1,0.1-0.3,0.2-0.7,0.4
					c-0.3,0.2-0.6,0.3-0.9,0.4c-0.3,0.1-0.7,0.1-1.2,0.2c-0.6,0.1-1.1-0.1-1.6-0.4c-0.5-0.4-0.8-0.9-0.9-1.6
					c-0.2-2.4-0.3-3.6-0.6-5.9c-0.5,0.1-0.8,0.1-1.3,0.1c-0.1-0.6-0.1-0.9-0.1-1.5c0.6-0.2,1.1-0.5,1.5-1c0.2-0.3,0.4-0.6,0.5-0.8
					c0.1-0.3,0.2-0.6,0.2-0.9c0-0.3,0-0.5,0-0.9c0.7-0.1,1.1-0.1,1.8-0.2c0.1,1.2,0.2,1.9,0.3,3.1c1-0.1,1.6-0.1,2.6-0.2
					c0.1,0.7,0.1,1.1,0.2,1.8c-1,0.1-1.5,0.1-2.5,0.2c0.2,2.1,0.3,3.2,0.5,5.3c0,0.3,0.2,0.5,0.5,0.7c0.1,0.1,0.3,0.1,0.4,0.1
					c0.2,0,0.4-0.1,0.6-0.3c0.3-0.4,0.5-0.5,0.9-0.9C113.3,167.9,113.5,168.1,114,168.6z"/>
				<path class="st5" d="M135.2,157.6c-0.2,0-0.4,0.1-0.6,0.1c-0.1,0-0.3,0.1-0.4,0.1c-0.1,0-0.3,0.1-0.5,0.3
					c-0.2,0.1-0.4,0.3-0.5,0.5c-0.1,0.1-0.3,0.3-0.4,0.6c-1.1,1.8-1.6,2.8-2.6,4.6c0.1,1.1,0.1,1.6,0.1,2.7c0,0.2,0,0.4,0.1,0.6
					c0.1,0.2,0.2,0.3,0.3,0.4c0.2,0.2,0.5,0.3,0.8,0.3c0.2,0,0.3,0,0.6,0c0,0.6,0,1,0.1,1.6c-2.6,0-3.9,0.1-6.6,0.1
					c0-0.6-0.1-0.9-0.1-1.6c0.1,0,0.2,0,0.4,0c0.2,0,0.4,0,0.6-0.1c0.2-0.1,0.3-0.2,0.4-0.3c0.1-0.1,0.2-0.2,0.2-0.3
					c0-0.1,0-0.2,0-0.4c0-0.1,0-0.1,0-0.2c-0.1-1-0.1-1.6-0.1-2.6c-1.4-2-2-3-3.4-4.9c-0.1-0.2-0.3-0.3-0.4-0.4
					c-0.1-0.1-0.3-0.2-0.4-0.3c-0.2-0.1-0.3-0.2-0.4-0.2c-0.2-0.1-0.3-0.1-0.5-0.1c-0.2,0-0.2,0-0.4,0c0-0.7-0.1-1-0.1-1.7
					c2.9-0.1,4.3-0.2,7.2-0.2c0,0.6,0.1,1,0.1,1.6c-0.2,0-0.4,0-0.6,0c-0.1,0-0.2,0-0.2,0c-0.1,0-0.2,0-0.3,0
					c-0.1,0-0.1,0.1-0.2,0.2c-0.1,0.1-0.1,0.2-0.1,0.3c0,0.1,0,0.2,0.1,0.2c0,0.1,0.1,0.2,0.1,0.3c0.7,1.2,1.1,1.8,1.8,3.1
					c0.7-1.4,1-2,1.7-3.4c0.1-0.1,0.1-0.2,0.1-0.3c0-0.1,0-0.2-0.1-0.2c0-0.1-0.1-0.1-0.2-0.2c-0.1,0-0.2-0.1-0.4-0.1
					c-0.1,0-0.1,0-0.2,0c-0.2,0-0.4,0-0.6,0c0-0.6-0.1-1-0.1-1.6c2.3,0,3.4-0.1,5.7,0C135.2,156.6,135.2,156.9,135.2,157.6z"/>
				<path class="st5" d="M146.9,164.8c0,1.5-0.4,2.7-1.2,3.6c-0.9,0.9-2.2,1.4-3.9,1.3c-1.5,0-2.8-0.6-3.7-1.6
					c-0.9-1-1.4-2.2-1.5-3.7c-0.1-1.7,0.4-3,1.4-3.9c0.9-0.8,2.1-1.2,3.6-1.1c1.5,0,2.7,0.5,3.7,1.4
					C146.4,161.8,146.9,163.1,146.9,164.8z M143.6,165c0-0.3,0-0.5,0-0.9c0-0.8-0.2-1.5-0.5-2c-0.3-0.5-0.8-0.7-1.4-0.7
					c-0.6,0-1,0.3-1.3,0.8c-0.3,0.5-0.4,1.1-0.4,1.9c0,0.4,0,0.5,0,0.9c0,0.8,0.2,1.4,0.5,1.9c0.4,0.6,0.8,0.8,1.4,0.9
					c0.6,0,1-0.3,1.3-0.9C143.5,166.4,143.6,165.7,143.6,165z"/>
				<path class="st5" d="M159.5,170.5c-1.6-0.1-2.4-0.2-4-0.3c0-0.3,0-0.4,0-0.7c-0.4,0.2-0.7,0.3-1.1,0.5c-0.1,0.1-0.4,0.1-0.8,0.2
					c-0.4,0.1-0.9,0.1-1.2,0.1c-0.5,0-1-0.1-1.3-0.3c-0.4-0.2-0.8-0.5-1.1-0.9c-0.2-0.2-0.3-0.5-0.4-0.9c-0.1-0.4-0.2-0.7-0.2-1.1
					c0-1.5,0-2.2-0.1-3.7c0-0.2,0-0.4-0.1-0.6c0-0.2-0.1-0.3-0.3-0.4c-0.1-0.1-0.2-0.1-0.3-0.2c-0.1,0-0.2-0.1-0.3-0.1
					c-0.2,0-0.3-0.1-0.5-0.1c0-0.6,0-0.9,0-1.6c0.1,0,0.3,0,0.6,0c0.3,0,0.6-0.1,0.9-0.1c0.5-0.1,0.8-0.1,0.9-0.1
					c0.3,0,0.5-0.1,0.7-0.1c0.6,0,0.9,0.1,1.5,0.1c0,2.8,0,4.1,0.1,6.9c0,0.4,0.1,0.7,0.2,0.9c0.1,0.1,0.2,0.2,0.3,0.3
					c0.1,0,0.2,0,0.3,0c0.2,0,0.5,0,0.7-0.1c0.2-0.1,0.5-0.2,0.7-0.3c0.2-0.1,0.3-0.2,0.5-0.3c0-1.6,0-2.4,0-4c0-0.1,0-0.3,0-0.4
					c0-0.1-0.1-0.2-0.2-0.3c-0.1-0.1-0.2-0.2-0.3-0.3c-0.1-0.1-0.3-0.1-0.5-0.2c-0.1,0-0.2,0-0.3-0.1c0-0.6,0-0.9,0-1.6
					c0.4,0,0.6,0,0.8,0c0.2,0,0.5,0,0.9-0.1c0.4,0,0.6-0.1,0.7-0.1c0.2,0,0.5-0.1,0.9-0.1c0.5,0,0.7,0.1,1.2,0.1c0,2.9,0,4.3,0,7.2
					c0,0.2,0,0.3,0.1,0.4c0,0.1,0.1,0.2,0.2,0.3c0.1,0.2,0.3,0.3,0.6,0.3c0.2,0,0.3,0.1,0.4,0.1
					C159.5,169.6,159.5,169.9,159.5,170.5z"/>
				<path class="st5" d="M168.7,163.1c0,0.3-0.1,0.5-0.1,0.7c-0.1,0.2-0.2,0.3-0.4,0.5c-0.1,0.1-0.2,0.1-0.4,0.2
					c-0.2,0-0.3,0.1-0.5,0c-0.1,0-0.2,0-0.3-0.1c-0.1,0-0.2-0.1-0.3-0.1c-0.3-0.2-0.5-0.3-0.8-0.5c-0.1-0.1-0.2-0.1-0.3-0.1
					c-0.1,0-0.1,0-0.1,0c0,0-0.1,0-0.1,0c-0.2,0.1-0.2,0.2-0.2,0.3c0,1.7,0,2.6-0.1,4.3c0,0.2,0,0.4,0,0.5c0,0.1,0.1,0.3,0.2,0.4
					c0.1,0.1,0.2,0.2,0.3,0.2c0.1,0,0.2,0.1,0.3,0.1c0.2,0,0.2,0,0.4,0.1c0,0.6,0,1,0,1.6c-2.3-0.3-3.5-0.4-5.8-0.6
					c0-0.6,0-0.9,0-1.6c0.2,0,0.3,0,0.5,0c0.2,0,0.2,0,0.3,0c0.1,0,0.2-0.1,0.3-0.1s0.2-0.1,0.3-0.2c0.1-0.1,0.1-0.2,0.1-0.4
					c0-1.8,0-2.7,0-4.5c0-0.1,0-0.2-0.1-0.3c0-0.1-0.1-0.2-0.2-0.3c-0.1-0.1-0.2-0.2-0.3-0.3c-0.1-0.1-0.3-0.1-0.5-0.2
					c-0.2,0-0.2,0-0.4-0.1c0-0.6,0-1,0-1.6c0.2,0,0.4,0,0.6,0c0.2,0,0.5,0,0.9,0c0.4,0,0.7,0,0.9-0.1c0.3,0,0.5-0.1,0.8-0.1
					c0.3,0,0.5,0.1,0.8,0.1c0,0.4,0,0.6,0,1c0.3-0.1,0.4-0.2,0.6-0.3c0.3-0.2,0.7-0.3,1-0.3c0.4,0,0.7-0.1,1,0c0.4,0,0.7,0.2,1,0.6
					C168.6,162.3,168.7,162.6,168.7,163.1z"/>
				<path class="st5" d="M183.8,161.8c-0.2,0-0.3,0-0.5,0c-0.1,0-0.3,0-0.4,0c-0.2,0-0.4,0.1-0.5,0.2c-0.1,0.1-0.2,0.2-0.3,0.4
					c-0.1,0.1-0.1,0.3-0.1,0.5c-0.1,3-0.2,4.5-0.4,7.5c0,0.2,0,0.4,0,0.6c0.1,0.2,0.2,0.4,0.3,0.5c0.1,0.1,0.3,0.2,0.4,0.3
					c0.1,0.1,0.3,0.1,0.5,0.1c0.2,0,0.3,0,0.4,0.1c0,0.6-0.1,1-0.1,1.6c-2.6-0.5-3.9-0.7-6.5-1.1c0-0.6,0-0.9,0.1-1.6
					c0.2,0,0.3,0,0.5,0c0.2,0,0.4,0,0.5,0c0.2,0,0.3-0.1,0.4-0.2c0.1-0.1,0.2-0.2,0.2-0.4c0-0.1,0.1-0.3,0.1-0.6
					c0.1-3,0.2-4.5,0.3-7.4c0-0.3,0-0.5,0-0.6c0-0.1-0.1-0.2-0.2-0.4c-0.1-0.2-0.2-0.3-0.4-0.4c-0.2-0.1-0.3-0.2-0.5-0.2
					c-0.2-0.1-0.3-0.1-0.5-0.1c0-0.6,0-1,0.1-1.6c2.7,0.4,4.1,0.6,6.8,1.1C183.9,160.9,183.9,161.2,183.8,161.8z"/>
				<path class="st5" d="M201.3,177.3c-2.1-0.5-3.1-0.7-5.2-1.2c0-0.6,0.1-0.9,0.1-1.6c0.1,0,0.2,0,0.4,0c0.2,0,0.3,0,0.4-0.2
					c0.1-0.1,0.2-0.2,0.2-0.3c0-0.1,0.1-0.2,0.1-0.4c0.1-1.7,0.2-2.5,0.3-4.2c0-0.2,0-0.4-0.1-0.5c-0.1-0.1-0.2-0.3-0.3-0.4
					c-0.1-0.1-0.2-0.1-0.4-0.2c-0.3-0.1-0.7-0.1-1-0.1s-0.7,0.1-0.9,0.3c-0.1,1.8-0.2,2.7-0.3,4.6c0,0.2,0,0.3,0,0.4
					c0,0.1,0.1,0.2,0.2,0.4c0.1,0.1,0.2,0.2,0.4,0.3c0.2,0.1,0.2,0.1,0.4,0.2c0,0.6-0.1,0.9-0.1,1.5c-2-0.4-3-0.7-5.1-1.1
					c0-0.6,0.1-0.9,0.1-1.6c0.2,0,0.2,0,0.4,0c0.1,0,0.2,0,0.2,0c0.1,0,0.1-0.1,0.2-0.1c0.1-0.1,0.1-0.1,0.1-0.2
					c0-0.1,0-0.2,0.1-0.4c0.1-1.8,0.2-2.7,0.3-4.4c0-0.2,0-0.3-0.1-0.5c0-0.1-0.1-0.2-0.2-0.3c-0.1-0.1-0.2-0.1-0.4-0.2
					c-0.3-0.1-0.6-0.1-1,0c-0.4,0-0.7,0.1-1.1,0.3c-0.1,1.8-0.2,2.7-0.3,4.5c0,0.1,0,0.3,0,0.4c0,0.1,0.1,0.3,0.1,0.4
					c0.1,0.1,0.2,0.2,0.4,0.3c0.2,0.1,0.2,0.1,0.4,0.2c0,0.6-0.1,1-0.1,1.6c-2.1-0.4-3.2-0.6-5.3-1c0-0.6,0.1-0.9,0.1-1.6
					c0.2,0,0.3,0,0.4,0c0.2,0,0.3,0,0.4,0c0.1,0,0.2-0.1,0.3-0.1c0.2-0.2,0.3-0.4,0.3-0.7c0.1-1.6,0.1-2.4,0.2-4
					c0-0.3-0.1-0.6-0.4-0.9c-0.1-0.1-0.2-0.1-0.3-0.2c-0.1,0-0.2-0.1-0.3-0.1c-0.1,0-0.2-0.1-0.3-0.1c0-0.6,0.1-0.9,0.1-1.6
					c0.3,0,0.5,0,0.8,0.1c0.3,0,0.5,0.1,0.8,0.1c0.4,0,0.8,0,1,0c0.3,0,0.5,0,0.6-0.1c0.4,0.1,0.6,0.1,1,0.2c0,0.3,0,0.4,0,0.7
					c0.3-0.1,0.4-0.1,0.7-0.2c0.4-0.1,0.8-0.2,1.1-0.3s0.7,0,1.1,0.1c0.6,0.1,1,0.3,1.4,0.5c0.4,0.2,0.8,0.6,1.2,1.1
					c0.2-0.1,0.3-0.1,0.4-0.2c0.5-0.2,1-0.3,1.5-0.4c0.4,0,0.9,0,1.4,0.1c0.2,0,0.4,0.1,0.5,0.1c0.1,0,0.4,0.1,0.8,0.2
					c0.4,0.1,0.8,0.5,1.2,1.1c0.4,0.6,0.6,1.1,0.6,1.7c-0.2,1.9-0.2,2.9-0.4,4.8c0,0.2,0,0.3,0,0.3c0,0.1,0,0.2,0,0.3
					c0,0.1,0.1,0.2,0.1,0.2c0.1,0.1,0.1,0.1,0.2,0.2s0.2,0.1,0.2,0.1c0.2,0.1,0.3,0.1,0.5,0.2C201.4,176.2,201.4,176.6,201.3,177.3z
					"/>
				<path class="st5" d="M213.6,175.7c-0.1,1.3-0.6,2.3-1.5,3.1c-0.9,0.8-2,1-3.3,0.7c-0.4-0.1-0.7-0.2-1-0.4s-0.6-0.4-0.9-0.7
					c-0.1,0.7-0.1,1.1-0.2,1.8c0,0.2,0,0.3,0,0.4c0,0.1,0.1,0.2,0.1,0.4c0.1,0.2,0.3,0.4,0.6,0.4c0.2,0,0.2,0.1,0.4,0.1
					c-0.1,0.6-0.1,0.9-0.2,1.5c-2.3-0.6-3.5-0.9-5.8-1.5c0.1-0.6,0.1-0.9,0.1-1.5c0.2,0,0.2,0,0.4,0.1c0.2,0,0.3,0.1,0.5,0
					c0.1,0,0.3-0.1,0.4-0.2c0.1-0.1,0.2-0.2,0.2-0.3c0-0.1,0.1-0.3,0.1-0.5c0.3-3.1,0.4-4.7,0.7-7.8c0-0.2,0-0.3,0-0.4
					c0-0.1-0.1-0.2-0.1-0.3c-0.1-0.2-0.3-0.4-0.5-0.5c-0.3-0.1-0.4-0.1-0.6-0.2c0.1-0.6,0.1-0.9,0.1-1.6c0.1,0,0.3,0,0.6,0.1
					c0.4,0.1,0.7,0.1,0.9,0.1c0.7,0.1,1.2,0.1,1.5,0.1c0.5,0.1,0.7,0.2,1.2,0.3c0,0.3,0,0.5-0.1,0.8c0.4-0.3,0.8-0.4,1.1-0.5
					c0.4-0.1,0.9-0.1,1.5,0.1c1.3,0.4,2.3,1.1,2.9,2.2C213.6,172.7,213.8,174,213.6,175.7z M210.5,175.1c0-0.3,0.1-0.5,0.1-0.8
					c0.1-0.6,0-1.2-0.2-1.8c-0.3-0.8-0.6-1.2-1.2-1.3c-0.3-0.1-0.7-0.1-1,0c-0.3,0.1-0.5,0.2-0.7,0.4c-0.2,1.9-0.3,2.9-0.5,4.8
					c0.1,0.1,0.1,0.2,0.2,0.3c0.1,0.2,0.3,0.3,0.5,0.4c0.2,0.1,0.4,0.2,0.6,0.2c0.7,0.2,1.2-0.1,1.6-0.7
					C210.3,176.2,210.4,175.7,210.5,175.1z"/>
				<path class="st5" d="M224.5,183.1c-0.5,0.2-0.9,0.4-1.3,0.4c-0.4,0-0.7,0-1.1-0.1c-0.8-0.3-1.4-0.8-1.9-1.6
					c-1.1,0.4-2.1,0.4-3.1,0.1c-0.9-0.3-1.5-0.7-2-1.4c-0.5-0.6-0.7-1.4-0.6-2.1c0.1-0.7,0.4-1.2,0.8-1.6c0.4-0.4,1-0.6,1.7-0.6
					c0.5,0,0.9,0,1.3,0c0.4,0,0.8,0.1,1.3,0.2c0.3,0.1,0.5,0.1,0.8,0.2c0.1-0.6,0.1-0.9,0.2-1.4c0-0.1,0-0.3-0.1-0.4
					c-0.2-0.2-0.4-0.4-0.8-0.5c-0.3-0.1-0.5-0.1-0.7-0.2c-0.1,0-0.3,0-0.5,0.1c-0.1,0-0.2,0.1-0.2,0.2c0,0.1-0.1,0.2-0.1,0.3
					c0,0.2,0,0.3-0.1,0.4c0,0.3-0.2,0.5-0.4,0.6c-0.3,0.2-0.7,0.2-1.2,0c-0.3-0.1-0.6-0.3-0.9-0.6c-0.2-0.3-0.3-0.7-0.3-1
					c0.1-0.8,0.6-1.4,1.4-1.7c0.8-0.3,1.8-0.3,2.9,0c0.8,0.3,1.6,0.6,2.2,1c0.7,0.5,1.2,1.1,1.4,1.7c0.1,0.3,0.2,0.6,0.2,0.9
					c0,0.3,0,0.7-0.1,1.1c-0.2,1.6-0.3,2.3-0.5,3.9c0,0.3,0,0.4,0,0.5c0,0.1,0.1,0.2,0.2,0.2c0.1,0.1,0.2,0.1,0.3,0
					c0.1,0,0.1-0.1,0.3-0.1C224,182.1,224.1,182.4,224.5,183.1z M220,179.8c0.1-0.8,0.1-1.2,0.2-2c-0.3,0-0.5-0.1-0.8-0.1
					c-0.3,0-0.5,0-0.7,0c-0.3,0.1-0.5,0.2-0.7,0.3c-0.2,0.2-0.3,0.4-0.4,0.7c0,0.1,0,0.2,0,0.4c0,0.2,0.1,0.3,0.2,0.4
					c0.1,0.1,0.3,0.2,0.5,0.3c0.1,0,0.3,0.1,0.5,0.1c0.2,0,0.4,0,0.6-0.1C219.7,179.9,219.9,179.8,220,179.8z"/>
				<path class="st5" d="M235.1,184.7c-0.1,0.2-0.2,0.3-0.4,0.5c-0.6,0.7-1.3,1.1-2.3,1.2c-0.7,0.1-1.5-0.1-2.4-0.4
					c-1.4-0.5-2.4-1.3-3.2-2.4c-0.8-1.2-1.1-2.7-0.9-4.3c0.2-1.4,0.8-2.5,1.8-3.1c1-0.7,2.3-0.8,3.8-0.3c1.1,0.4,2,1,2.7,1.8
					c0.9,0.9,1.2,1.8,1.1,2.6c-0.1,0.5-0.3,0.8-0.6,1c-0.3,0.2-0.7,0.2-1.1,0.1c-0.4-0.1-0.8-0.4-1-0.7c-0.3-0.3-0.4-0.7-0.3-1.1
					c0-0.3,0.1-0.4,0.1-0.7c0-0.2-0.1-0.4-0.3-0.7c-0.2-0.2-0.5-0.4-0.7-0.5c-0.5-0.2-1,0-1.4,0.6c-0.4,0.5-0.6,1.2-0.7,2
					c-0.1,0.9-0.1,1.7,0.1,2.3c0.3,0.8,0.8,1.3,1.6,1.6c0.5,0.2,1,0.2,1.5,0.1c0.5-0.1,0.8-0.3,1-0.6c0.1-0.1,0.1-0.2,0.2-0.4
					C234.3,183.9,234.6,184.2,235.1,184.7z"/>
				<path class="st5" d="M243.5,189.1c-0.3,0.1-0.4,0.2-0.7,0.3c-0.3,0.1-0.5,0.2-0.7,0.3c-0.1,0-0.4,0.1-0.7,0.1
					c-0.4,0-0.7,0-1-0.1c-0.3-0.1-0.7-0.2-1.3-0.4c-0.6-0.2-1.1-0.6-1.4-1.2c-0.4-0.6-0.6-1.3-0.4-1.9c0.4-2.3,0.6-3.5,0.9-5.8
					c-0.5-0.2-0.8-0.3-1.3-0.5c0.1-0.6,0.1-0.9,0.2-1.5c0.6,0.1,1.2,0,1.7-0.3c0.3-0.2,0.5-0.3,0.7-0.5s0.3-0.5,0.4-0.8
					c0.1-0.3,0.2-0.5,0.3-0.8c0.7,0.3,1.1,0.4,1.8,0.7c-0.2,1.2-0.3,1.8-0.5,3c1,0.4,1.6,0.6,2.6,1c-0.1,0.7-0.2,1-0.3,1.7
					c-1-0.4-1.5-0.6-2.5-1c-0.3,2.1-0.5,3.1-0.9,5.1c-0.1,0.3,0,0.6,0.3,0.8c0.1,0.1,0.2,0.2,0.3,0.2c0.2,0.1,0.4,0.1,0.6,0
					c0.4-0.2,0.6-0.3,1.1-0.4C243,188.1,243.2,188.4,243.5,189.1z"/>
			</g>
		</g>
	</g>
</g>
</svg>
