<?xml version="1.0" encoding="utf-8"?>
<!-- Generator: Adobe Illustrator 19.0.0, SVG Export Plug-In . SVG Version: 6.00 Build 0)  -->
<svg version="1.1" id="Layer_1" xmlns="http://www.w3.org/2000/svg" xmlns:xlink="http://www.w3.org/1999/xlink" x="0px" y="0px"
	 viewBox="-105 107 288 288" style="enable-background:new -105 107 288 288;" xml:space="preserve">
<style type="text/css">
	.st0{fill:#BD1F2F;stroke:#BD1F2F;stroke-miterlimit:10;}
	.st1{fill:#D6D6D6;stroke:#D3CBCB;stroke-miterlimit:10;}
	.st2{fill:#D8CCCC;stroke:#D7CCCC;stroke-miterlimit:10;}
	.st3{fill:#EEEEEE;stroke:#EEEEEE;stroke-miterlimit:10;}
	.st4{fill:#B3B3B7;}
	.st5{fill:#CCCCCE;}
	.st6{fill:#E8E8EC;}
	.st7{fill:#3B5999;}
</style>
<g>
	
		<ellipse transform="matrix(-3.083124e-002 -0.9995 0.9995 -3.083124e-002 -201.4509 303.4573)" class="st0" cx="46.4" cy="249.4" rx="107.6" ry="106.1"/>
	
		<ellipse transform="matrix(-3.083124e-002 -0.9995 0.9995 -3.083124e-002 -201.4509 303.4573)" class="st1" cx="46.4" cy="249.4" rx="79.3" ry="78.3"/>
</g>
<polygon class="st2" points="-38.7,279.9 -43.1,277.7 -47.3,280.1 -46.7,275.2 -50.3,271.8 -45.5,270.9 -43.4,266.3 -41.1,270.8 
	-36.3,271.4 -39.7,275 "/>
<polygon class="st2" points="134.5,284.2 133.1,289 136.2,292.9 131.3,293 128.6,297.2 127,292.5 122.3,291.2 126.2,288.1 
	126,283.1 130,286 "/>
<polygon class="st2" points="125.9,303.1 124.5,307.9 127.6,311.8 122.7,311.9 120,316.1 118.4,311.4 113.7,310.1 117.6,307 
	117.3,302 121.3,304.9 "/>
<polygon class="st2" points="-43.2,218.9 -42.3,214 -45.7,210.4 -40.8,209.8 -38.6,205.3 -36.5,209.9 -31.7,210.7 -35.3,214.1 
	-34.6,219.1 -38.8,216.7 "/>
<polygon class="st2" points="-49.6,239.2 -48.7,234.2 -52.1,230.7 -47.2,230.1 -45,225.6 -42.9,230.2 -38.1,231 -41.7,234.4 
	-41,239.4 -45.2,236.9 "/>
<polygon class="st2" points="-34.9,199.9 -34,195 -37.4,191.4 -32.5,190.8 -30.3,186.3 -28.2,190.9 -23.4,191.7 -27,195.1 
	-26.3,200.1 -30.5,197.7 "/>
<g>
	<polygon class="st3" points="-42.1,258.9 -46.5,256.7 -50.7,259.2 -50.1,254.2 -53.7,250.8 -48.9,250 -46.8,245.4 -44.5,249.8 
		-39.7,250.4 -43.1,254 	"/>
	<polygon class="st3" points="-31.2,297.8 -35.6,295.6 -39.8,298.1 -39.1,293.1 -42.7,289.7 -37.9,288.9 -35.9,284.3 -33.6,288.7 
		-28.8,289.3 -32.1,292.9 	"/>
	<polygon class="st3" points="-5.4,328.7 -9.8,326.5 -14,328.9 -13.3,324 -16.9,320.6 -12.1,319.7 -10.1,315.2 -7.8,319.6 
		-2.9,320.2 -6.3,323.8 	"/>
	<polygon class="st3" points="12.1,340.3 7.7,338.1 3.4,340.5 4.1,335.6 0.5,332.2 5.3,331.3 7.4,326.8 9.6,331.2 14.5,331.8 
		11.1,335.4 	"/>
	<polygon class="st3" points="30.7,346.5 26.3,344.3 22.1,346.8 22.8,341.8 19.2,338.4 24,337.6 26,333 28.3,337.4 33.1,338 
		29.7,341.6 	"/>
	<polygon class="st3" points="52,349 47.6,346.8 43.4,349.3 44.1,344.3 40.5,340.9 45.3,340 47.3,335.5 49.6,339.9 54.4,340.5 
		51.1,344.1 	"/>
	<polygon class="st3" points="-21.1,315.5 -25.5,313.3 -29.7,315.8 -29.1,310.8 -32.7,307.4 -27.8,306.5 -25.8,302 -23.5,306.4 
		-18.7,307 -22.1,310.6 	"/>
	<polygon class="st3" points="75,333.5 73.6,338.3 76.7,342.2 71.8,342.3 69.1,346.5 67.5,341.8 62.8,340.5 66.7,337.4 66.4,332.4 
		70.4,335.3 	"/>
	<polygon class="st3" points="94.6,326.7 93.2,331.5 96.2,335.4 91.3,335.5 88.7,339.7 87,335 82.3,333.7 86.2,330.6 86,325.6 
		90,328.5 	"/>
	<polygon class="st3" points="110.6,316.2 109.2,321 112.2,324.9 107.3,325 104.7,329.2 103.1,324.4 98.4,323.1 102.2,320.1 
		102,315.1 106,317.9 	"/>
	<polygon class="st3" points="140.8,264.9 139.4,269.7 142.5,273.6 137.6,273.7 135,277.9 133.3,273.2 128.6,271.9 132.5,268.8 
		132.3,263.8 136.3,266.7 	"/>
	<polygon class="st3" points="143.4,245.1 142,249.9 145.1,253.8 140.2,253.9 137.5,258.1 135.9,253.4 131.2,252.1 135.1,249 
		134.8,244 138.8,246.9 	"/>
	<polygon class="st3" points="141.6,223.7 140.2,228.5 143.3,232.4 138.4,232.5 135.7,236.7 134.1,232 129.4,230.7 133.3,227.6 
		133,222.6 137.1,225.5 	"/>
	<polygon class="st3" points="125.8,205.5 130.7,205.8 133.7,201.8 134.9,206.6 139.5,208.3 135.5,211 135.3,216 131.5,212.9 
		126.9,214.3 128.6,209.6 	"/>
	<polygon class="st3" points="114.7,187.6 119.5,187.9 122.5,183.9 123.8,188.7 128.4,190.4 124.3,193.1 124.2,198.2 120.4,195 
		115.7,196.4 117.4,191.8 	"/>
	<polygon class="st3" points="100.8,174.2 105.7,174.4 108.7,170.4 109.9,175.3 114.5,176.9 110.5,179.7 110.3,184.7 106.5,181.6 
		101.9,183 103.6,178.3 	"/>
	<polygon class="st3" points="65.5,154.9 70.4,155.1 73.4,151.2 74.7,156 79.3,157.7 75.2,160.4 75.1,165.4 71.3,162.3 66.6,163.7 
		68.3,159 	"/>
	<polygon class="st3" points="45,151.4 49.9,151.7 52.9,147.7 54.2,152.5 58.8,154.2 54.7,156.9 54.6,161.9 50.8,158.8 46.1,160.2 
		47.8,155.6 	"/>
	<polygon class="st3" points="25.3,152.7 30.2,153 33.1,149 34.4,153.8 39,155.5 34.9,158.2 34.8,163.2 31,160.1 26.3,161.5 
		28.1,156.8 	"/>
	<polygon class="st3" points="84.8,162 89.7,162.3 92.6,158.3 93.9,163.1 98.5,164.8 94.4,167.5 94.3,172.5 90.5,169.4 85.8,170.8 
		87.6,166.1 	"/>
	<polygon class="st3" points="9.1,167.3 10.1,162.4 6.6,158.8 11.5,158.2 13.7,153.8 15.8,158.3 20.6,159.2 17,162.6 17.7,167.5 
		13.5,165.1 	"/>
	<polygon class="st3" points="-22.6,186 -21.7,181.1 -25.1,177.5 -20.3,176.9 -18,172.5 -16,177 -11.1,177.9 -14.7,181.3 -14,186.2 
		-18.3,183.8 	"/>
	<polygon class="st3" points="-6.8,174.7 -5.9,169.8 -9.3,166.2 -4.5,165.6 -2.2,161.2 -0.1,165.7 4.7,166.6 1.1,170 1.8,175 
		-2.5,172.5 	"/>
</g>
<g>
	<path class="st4" d="M90.4,238.2c-5.7-0.6-11.6-1-17.6-1.2c-52.2-1.7-96.5,14.8-128.6,32.1c5.3,8,10.5,16.1,15.8,24.1
		c12.1-6.5,24.3-13,36.4-19.5c15-6.4,40.2-14.9,72.3-15.8c29-0.8,52.4,4.9,67.3,9.8c-7.8-7.2-15.5-14.3-23.3-21.5
		C105.3,243.5,97.9,240.8,90.4,238.2z"/>
	<path class="st5" d="M-12.1,196.3c0,0,1.7-9.2-15.2-9.7s-61.6-8.1-66-16.7l11.3,23.8l-18.7,11.6c0,0,34.6,20.8,47.5,19.5
		s33.6-12.3,33.6-12.3L-12.1,196.3z"/>
	<path class="st4" d="M-55,213.1c0,0-3.3-19,13-16.5c16.3,2.6,28.4,9.7,29.9-0.3l-2.2,35l-44-16L-55,213.1z"/>
	<path class="st6" d="M-59,211.8c-0.6,4.4-1.3,14,3.2,24.6c3.4,8,8.3,13.3,11.5,16.2c8.3-3.6,21-8.4,36.9-11.7
		c8.9-1.8,48.7-9.2,96.9,5.7c11.7,3.6,28.2,9.9,46.5,21.1c2.6-3,6.9-8.8,8.9-17.3c2.9-11.7-0.3-21.3-1.8-25
		C120.5,213,67.6,188,0.8,196C-23.1,198.8-43.2,205.2-59,211.8z"/>
	<g>
		<g>
			<path class="st7" d="M-21.7,215.7c-1.1,0.8-1.7,1.2-2.8,2c-0.5-0.3-0.7-0.4-1.2-0.6c-1-0.5-1.8-0.9-2.4-1.2
				c-0.8-0.3-1.7-0.5-2.8-0.6c-1.1-0.1-2.1-0.1-2.9,0c-0.9,0.1-1.8,0.3-2.8,0.7c-0.7,0.2-1,0.4-1.6,0.6c-0.5,0.2-0.9,0.4-1.3,0.6
				c-0.3,0.2-0.6,0.4-0.7,0.7c-0.2,0.3-0.2,0.5-0.2,0.7s0.1,0.4,0.2,0.7c0,0.1,0.1,0.2,0.1,0.2c0.7,1.7,1.1,2.6,1.8,4.3
				c0.9-0.4,1.4-0.5,2.3-0.9c0.6-0.2,1-0.4,1.3-0.7c0.3-0.2,0.6-0.6,0.8-1c0.2-0.3,0.2-0.7,0.2-1.1s-0.2-0.8-0.4-1.3
				c-0.1-0.3-0.2-0.4-0.3-0.7c1.3-0.5,2-0.7,3.4-1.2c1.6,4.4,2.3,6.6,3.9,11.1c-1.3,0.4-1.9,0.6-3.2,1.1c-0.2-0.4-0.3-0.6-0.5-1
				s-0.3-0.8-0.5-1c-0.3-0.4-0.8-0.8-1.4-1c-0.3-0.1-0.7-0.1-1.2,0s-1,0.3-1.6,0.5s-0.8,0.3-1.4,0.5c0.9,2.2,1.3,3.2,2.2,5.4
				c0.1,0.4,0.3,0.6,0.4,0.8c0.1,0.2,0.4,0.3,0.7,0.4c0.4,0.2,0.9,0.2,1.3,0.2c0.3,0,0.8-0.1,1.5-0.3c0.3-0.1,0.5-0.2,0.8-0.3
				c0.4,1,0.6,1.6,1,2.6c-5.6,2.1-8.4,3.2-13.9,5.8c-0.5-1-0.8-1.6-1.3-2.6c0.2-0.1,0.4-0.2,0.6-0.3c0.8-0.4,1.4-1,1.7-1.7
				c0.2-0.4,0.3-0.8,0.2-1.1c0-0.3-0.2-0.7-0.4-1.2c-2.3-5-3.5-7.5-5.8-12.4c-0.2-0.4-0.4-0.6-0.6-0.9c-0.2-0.2-0.6-0.4-0.9-0.4
				c-0.4,0-0.7,0-1.1,0c-0.3,0.1-0.8,0.2-1.4,0.5c-0.3,0.2-0.5,0.2-0.8,0.4c-0.5-1.1-0.8-1.6-1.3-2.6c10-4.8,15.2-6.8,25.7-10
				C-25.6,212-24.3,213.2-21.7,215.7z"/>
			<path class="st7" d="M10.8,226.9c-5.8,0.6-8.7,1-14.5,2.1c-0.2-1.2-0.4-1.7-0.6-2.9c0.5-0.1,0.8-0.2,1.3-0.3
				c0.4-0.1,0.8-0.2,1.1-0.3c0.3-0.1,0.5-0.3,0.7-0.5c0.2-0.2,0.2-0.4,0.2-0.6c0-0.1-0.1-0.3-0.2-0.4c-1-1.5-1.5-2.3-2.5-3.8
				c-3.7,0.7-5.5,1-9.1,1.9c-0.3,1.6-0.4,2.3-0.6,3.9c-0.1,0.3-0.1,0.6,0,0.7c0.1,0.2,0.2,0.4,0.4,0.6c0.2,0.2,0.5,0.3,1,0.3
				s0.8,0,1.1-0.1c0.6-0.1,0.9-0.2,1.5-0.4c0.3,1.2,0.4,1.8,0.7,3c-4.9,1.1-7.4,1.8-12.2,3.2c-0.4-1.1-0.5-1.7-0.9-2.8
				c0.8-0.3,1.5-0.8,2.1-1.4c0.4-0.4,0.7-0.8,1-1.1c0.3-0.4,0.4-0.8,0.5-1.3c1.5-8.4,2.5-12.6,4.8-21c2.8-0.6,4.2-0.9,7.1-1.4
				c5.7,7.1,8.3,10.7,13.1,18.2c0.2,0.3,0.4,0.6,0.7,0.7c0.2,0.2,0.6,0.3,1,0.4c0.6,0.2,1.3,0.3,2,0.2
				C10.7,225.1,10.7,225.7,10.8,226.9z M-5.6,217.2c-1.9-2.5-2.9-3.7-4.9-6.2c-0.8,3-1.2,4.6-1.8,7.6C-9.6,218-8.3,217.7-5.6,217.2z
				"/>
			<path class="st7" d="M44.7,227.1c-6.4-0.7-9.6-0.9-16-0.9c0-1.2,0-1.9,0-3.1c0.5,0,0.8,0,1.3,0c0.6,0,1.1-0.1,1.3-0.5
				c0.1-0.1,0.1-0.2,0.1-0.3c0-0.1,0-0.2-0.1-0.3s-0.2-0.3-0.3-0.4c-1.7-2.1-2.6-3.1-4.4-5.2c-1.6,2-2.4,3-3.9,5
				c-0.2,0.3-0.3,0.5-0.3,0.7c0,0.1,0,0.3,0.1,0.3c0.4,0.5,1,0.7,1.7,0.7c0.6,0,1,0,1.6,0.1c0,1.2,0,1.8,0.1,3
				c-5.1,0-7.6,0.2-12.7,0.6c-0.1-1.2-0.2-1.8-0.3-3c0.4-0.1,0.6-0.1,1.1-0.2c0.3-0.1,0.6-0.2,0.8-0.3c0.2-0.1,0.7-0.4,1.4-0.9
				c0.5-0.3,0.9-0.7,1.3-1.2c0.2-0.3,0.5-0.5,0.7-0.8c2.3-2.7,3.5-4.1,5.9-6.7c-2.8-2.8-4.2-4.2-7.2-7c-0.2-0.2-0.4-0.4-0.7-0.6
				c-0.4-0.3-0.9-0.6-1.4-0.8c-0.5-0.2-0.8-0.3-1-0.3c-0.3-0.1-0.7-0.1-1.2-0.1c-0.6,0.1-1,0.1-1.6,0.1c-0.1-1.2-0.2-1.8-0.3-3.1
				c7.3-0.6,10.9-0.8,18.2-0.7c0,1.2,0,1.8,0,3c-0.6,0-0.9,0-1.5,0.1c-0.6,0-1,0.2-1.2,0.6c0,0.1-0.1,0.2-0.1,0.3
				c0,0.2,0.1,0.3,0.2,0.5c0,0,0.1,0.1,0.2,0.3c1.5,1.6,2.2,2.4,3.6,4c1.4-1.7,2.2-2.5,3.7-4.2c0.1-0.2,0.2-0.3,0.2-0.5
				c0-0.1,0-0.2-0.1-0.3c-0.1-0.2-0.2-0.3-0.4-0.4s-0.5-0.1-0.8-0.1c-0.7-0.1-1.1-0.1-1.8-0.1c0-1.2,0-1.8,0-3
				c5.9,0.1,8.8,0.3,14.7,0.9c-0.1,1.2-0.1,1.8-0.2,2.9c-0.5,0-0.8,0.1-1.3,0.1c-0.6,0-1.1,0.1-1.6,0.3c-0.4,0.1-0.8,0.2-1.3,0.4
				c-0.7,0.3-1.3,0.6-1.8,0.9c-0.5,0.3-1,0.7-1.6,1.2c-2.1,1.9-3.2,2.9-5.2,4.9c2.8,3.1,4.2,4.7,6.7,7.9c0.4,0.5,0.8,0.9,1.3,1.3
				c0.4,0.3,0.8,0.6,1.3,0.9c0.6,0.4,1.4,0.7,2.2,0.9c0.4,0,0.6,0.1,0.9,0.1C44.9,225.2,44.8,225.9,44.7,227.1z"/>
			<path class="st7" d="M72.6,224.4c-1.8,2.7-2.7,4.1-4.4,6.9c-8.1-2.1-12.3-2.9-20.6-3.9c-0.1-1.6-0.1-2.4-0.2-4.1
				c2.7-1.2,4-1.7,6.8-2.8c1.2-0.5,2.3-1,3.3-1.4c1.4-0.7,2.8-1.6,4.1-2.5c0.9-0.7,1.6-1.3,2-1.8c0.6-0.8,1-1.7,1.2-2.9
				c0.2-1,0-1.9-0.6-2.7c-0.7-1.1-1.9-1.8-3.5-2.1c-1.2-0.2-2.3-0.2-3.4,0c-1.1,0.2-1.6,0.6-1.7,1.2c0,0.2,0,0.4-0.1,0.5
				c0.3,0.5,0.4,0.8,0.7,1.4c0.1,0.2,0.2,0.4,0.2,0.5c0,0.2,0,0.3,0,0.6c-0.1,0.8-0.6,1.4-1.4,1.8c-0.8,0.4-1.7,0.5-2.7,0.4
				s-1.9-0.6-2.6-1.3c-0.7-0.8-1-1.5-1-2.2c0.3-2.5,1.8-4.3,4.6-5.3c2.4-0.9,5.4-1,8.9-0.3s6.4,1.9,8.5,3.6c2.4,2,3.3,4.2,2.7,6.7
				c-0.4,1.6-1.6,3-3.4,4.2c-1.8,1.2-3.9,2.1-6.4,2.7c-3.2,0.8-4.7,1.3-7.8,2.2c3,0.5,4.4,0.8,7.4,1.4c0.8,0.2,1.4,0.3,1.9,0.3
				s1-0.1,1.5-0.3c0.4-0.1,0.6-0.3,0.8-0.4c0.2-0.1,0.4-0.4,0.7-0.7c0.5-0.5,0.7-0.7,1.1-1.2C70.7,223.4,71.3,223.7,72.6,224.4z"/>
			<path class="st7" d="M107,232.8c-1.6,3.3-4.1,5.4-7.5,6.4c-3.2,0.9-6.5,0.6-10.1-0.8c-6.4-2.6-9.7-3.8-16.3-5.7
				c0.3-1.1,0.5-1.7,0.8-2.8c0.3,0.1,0.4,0.1,0.7,0.2c0.5,0.2,1,0.2,1.3,0.2c0.4,0,0.7-0.1,1.1-0.3c0.4-0.2,0.6-0.4,0.8-0.7
				c0.1-0.3,0.3-0.7,0.5-1.2c1.6-5.4,2.4-8.1,4-13.4c0.2-0.5,0-1.1-0.4-1.6c-0.2-0.3-0.5-0.5-0.9-0.7s-0.8-0.4-1.3-0.5
				c-0.3-0.1-0.5-0.1-0.8-0.2c0.3-1.2,0.5-1.8,0.8-2.9c7,2,10.5,3.2,17.4,5.9c4.4,1.8,7.7,4.4,9.6,7.6
				C108.6,225.7,108.7,229.3,107,232.8z M99.5,221.6c-0.5-1.2-1.2-2.1-2.1-2.7c-0.8-0.6-2.2-1.3-4-2c-1.3-0.5-2.1-0.7-2.5-0.6
				s-0.7,0.5-1,1.3c-1.9,5.5-2.8,8.2-4.7,13.6c-0.3,0.7-0.3,1.3-0.1,1.6s0.7,0.6,1.6,1c1.3,0.5,2.3,0.8,3,0.9c0.7,0.1,1.7,0.1,2.9,0
				c1.2-0.1,2.4-0.7,3.7-1.9s2.3-2.6,3-4.3c0.5-1.2,0.8-2.4,0.8-3.6C100.2,223.8,100,222.7,99.5,221.6z"/>
			<path class="st7" d="M132.2,254.5c-2.5,1.3-5,1.8-7.5,1.5c-2.7-0.3-5.5-1.4-8.5-3.3c-3.6-2.3-6-5.2-7.3-8.8
				c-1.3-3.7-1.3-7.1,0.3-10.3c1.8-3.5,4.5-5.6,8.4-6.2c3.7-0.5,7.7,0.5,11.8,3.1c1.3,0.9,2.4,1.7,3.2,2.5c0.8,0.8,1.7,1.8,2.5,3.1
				c0.4-0.2,0.6-0.3,1-0.4c0.9,0.6,1.3,0.9,2.2,1.6c-0.5,3.8-0.9,5.8-1.6,9.5c-1.4-0.5-2.1-0.8-3.5-1.3c0-1.2,0-1.7-0.1-2.9
				c-0.1-1.8-0.4-3.4-1.2-4.8c-0.8-1.5-2-2.8-3.6-3.9c-2.4-1.6-4.8-1.9-7.1-0.9c-1.9,0.8-3.4,2.3-4.6,4.5c-1.3,2.4-1.9,4.6-1.8,6.6
				c0.1,2.6,1.4,4.6,3.9,6.2c1.9,1.2,3.9,1.9,6,2.1c2,0.1,3.8-0.2,5.4-1.2C131.1,252.5,131.5,253.1,132.2,254.5z"/>
		</g>
	</g>
	<g>
		<g>
			<path class="st5" d="M96,309c0,0-3.1,8.3,12.8,11.4c15.9,3.2,57.1,17.2,59.9,26l-6.7-23.9l19.7-7.8c0,0-29.3-24.8-41.9-25.7
				s-34,6.1-34,6.1L96,309z"/>
			<path class="st4" d="M142.4,308.6c0,0,2.5,18.3-12.5,13.4c-15-5-30.8-20.1-33.9-13l10.9-28.4l36.2,17.9L142.4,308.6z"/>
		</g>
		<path class="st6" d="M-56.5,267.9c-0.8,3.3-1.6,8.9-0.4,15.5c1.4,8.3,5.3,14.2,7.5,17.1c20.4-5.6,38.2-8.3,51.6-9.6
			c16.5-1.7,50.7-3.8,92.9,4.5c19.4,3.8,35.4,8.8,47,12.9c1.7-4.2,3.6-10.3,4.1-17.8c0.3-4.5,0-8.4-0.4-11.7
			c-20-8.7-38-13.8-52-16.9c-8.6-1.9-47-9.9-98.1-4.2C-19.5,259.5-37.1,262.5-56.5,267.9z"/>
		<g>
			<g>
				<path class="st7" d="M-36.5,277.7c0.3,2,0.1,3.7-0.8,5.2c-0.8,1.4-2.1,2.3-3.7,2.8c-3,0.8-4.4,1.2-7.4,2.1
					c-0.1-0.6-0.2-0.9-0.3-1.5c0.1,0,0.2-0.1,0.3-0.1c0.2-0.1,0.4-0.1,0.6-0.2c0.1-0.1,0.3-0.2,0.4-0.4c0.1-0.2,0.1-0.4,0.1-0.5
					c0-0.2,0-0.4-0.1-0.7c-0.6-3-0.9-4.4-1.5-7.4c-0.1-0.3-0.2-0.5-0.5-0.7c-0.1-0.1-0.3-0.1-0.4-0.1c-0.2,0-0.3,0-0.6,0.1
					c-0.1,0-0.2,0.1-0.3,0.1c-0.1-0.6-0.2-1-0.3-1.6c2.8-0.8,4.2-1.2,7-2c1.8-0.5,3.4-0.3,4.8,0.5
					C-37.8,274.1-36.8,275.6-36.5,277.7z M-41.6,275.1c-0.5-0.4-0.9-0.6-1.3-0.6c-0.4,0-1,0-1.8,0.2c-0.5,0.1-0.8,0.3-0.9,0.5
					c-0.1,0.2-0.1,0.5,0,0.9c0.6,3,0.9,4.6,1.5,7.6c0.1,0.4,0.2,0.7,0.3,0.8s0.4,0.1,0.8,0c0.6-0.2,1-0.3,1.3-0.5s0.6-0.4,1-0.9
					c0.4-0.4,0.7-1.1,0.8-2c0.1-0.9,0.1-1.8-0.1-2.8c-0.1-0.7-0.3-1.3-0.6-1.9C-40.9,275.9-41.2,275.5-41.6,275.1z"/>
				<path class="st7" d="M-28.9,282.7c-2.2,0.5-3.3,0.7-5.5,1.3c-0.1-0.6-0.2-0.9-0.3-1.5c0.2-0.1,0.3-0.1,0.5-0.2
					c0.2-0.1,0.3-0.1,0.4-0.2s0.2-0.2,0.2-0.3c0.1-0.1,0.1-0.3,0.1-0.4c0-0.1,0-0.3,0-0.4c-0.3-1.5-0.4-2.3-0.7-3.9
					c0-0.3-0.2-0.5-0.4-0.6c-0.1-0.1-0.2-0.1-0.3-0.1c-0.1,0-0.2,0-0.4,0c-0.2,0-0.2,0-0.4,0c-0.1-0.6-0.2-0.9-0.3-1.5
					c0.2,0,0.3-0.1,0.5-0.2c0.2-0.1,0.4-0.2,0.8-0.3c0.4-0.1,0.7-0.3,0.9-0.4c0.3-0.1,0.5-0.3,0.8-0.4c0.5-0.1,0.7-0.2,1.2-0.3
					c0.5,2.7,0.7,4.1,1.1,6.8c0,0.3,0.1,0.4,0.1,0.5c0,0.1,0.1,0.2,0.2,0.3s0.2,0.1,0.3,0.2c0.1,0,0.2,0,0.4,0c0.2,0,0.3,0,0.4,0
					C-29,281.8-29,282.1-28.9,282.7z M-32.1,270.9c0.1,0.5,0,1-0.3,1.4s-0.6,0.7-1.1,0.8c-0.5,0.1-0.9,0-1.3-0.3s-0.6-0.7-0.7-1.2
					s0-1,0.3-1.4c0.3-0.4,0.7-0.7,1.2-0.8s0.9,0,1.3,0.3C-32.4,270.1-32.2,270.4-32.1,270.9z"/>
				<path class="st7" d="M-21.2,272.7c0,0.3,0,0.5,0,0.7c-0.1,0.2-0.2,0.4-0.4,0.6c-0.1,0.1-0.2,0.2-0.4,0.3
					c-0.1,0.1-0.3,0.1-0.5,0.2c-0.1,0-0.2,0-0.3,0c-0.1,0-0.2,0-0.3-0.1c-0.3-0.1-0.5-0.2-0.8-0.3c-0.1,0-0.2,0-0.3,0h-0.1
					c0,0-0.1,0-0.1,0.1c-0.1,0.1-0.2,0.2-0.2,0.4c0.3,1.7,0.4,2.6,0.6,4.3c0,0.2,0.1,0.4,0.1,0.5c0.1,0.1,0.2,0.3,0.3,0.3
					c0.1,0.1,0.2,0.1,0.3,0.1c0.1,0,0.2,0,0.3,0c0.2,0,0.2,0,0.4,0c0.1,0.6,0.1,1,0.2,1.6c-2.3,0.4-3.4,0.7-5.7,1.2
					c-0.1-0.6-0.1-0.9-0.2-1.5c0.2-0.1,0.3-0.1,0.5-0.2c0.1,0,0.2-0.1,0.3-0.1c0.1,0,0.1-0.1,0.3-0.2s0.2-0.2,0.2-0.3
					c0.1-0.1,0.1-0.3,0.1-0.4c-0.3-1.8-0.4-2.7-0.7-4.5c0-0.1,0-0.2-0.1-0.2c0-0.1-0.1-0.1-0.2-0.2c-0.1-0.1-0.2-0.1-0.3-0.2
					c-0.1,0-0.3,0-0.5,0s-0.2,0-0.4,0c-0.1-0.6-0.1-0.9-0.2-1.6c0.2,0,0.4-0.1,0.6-0.2c0.2-0.1,0.5-0.2,0.9-0.3s0.7-0.2,0.9-0.3
					c0.2-0.1,0.5-0.2,0.8-0.3s0.5-0.1,0.8-0.2c0.1,0.4,0.1,0.6,0.1,0.9c0.2-0.2,0.3-0.3,0.6-0.5c0.3-0.2,0.6-0.5,0.9-0.6
					c0.4-0.2,0.7-0.3,1-0.3c0.4-0.1,0.8,0,1.1,0.2C-21.4,271.9-21.2,272.3-21.2,272.7z"/>
				<path class="st7" d="M-10.1,276.5c-0.2,0.4-0.3,0.6-0.5,1c-0.4,0.8-0.9,1.4-1.5,1.8c-0.5,0.4-1.2,0.6-2.1,0.8
					c-1.3,0.2-2.5-0.1-3.6-0.9s-1.7-2-2-3.4c-0.2-1.4,0-2.7,0.7-3.7c0.7-1.1,1.8-1.8,3.2-2c0.9-0.1,1.7-0.1,2.4,0.1
					c0.7,0.2,1.3,0.6,1.8,1.2c0.2,0.3,0.4,0.7,0.6,1.2s0.3,1.1,0.4,1.7c-2.3,0.3-3.5,0.5-5.8,0.9c0,0.2,0,0.3,0.1,0.5
					c0.1,0.8,0.4,1.4,0.8,1.9s1,0.7,1.6,0.6c0.5-0.1,0.9-0.3,1.3-0.7c0.3-0.3,0.6-0.7,0.8-1.1c0.1-0.2,0.1-0.3,0.2-0.4
					C-11,276.2-10.7,276.3-10.1,276.5z M-13.8,273.2c0-0.1,0-0.2-0.1-0.4c-0.1-0.3-0.2-0.5-0.5-0.7s-0.6-0.2-0.9-0.2
					c-0.3,0.1-0.6,0.2-0.9,0.5c-0.2,0.2-0.4,0.5-0.4,0.9c0,0.1,0,0.2,0,0.4C-15.5,273.4-14.9,273.3-13.8,273.2z"/>
				<path class="st7" d="M0.3,275.2c-0.1,0.2-0.1,0.4-0.2,0.6c-0.3,0.9-0.9,1.6-1.8,2.1c-0.7,0.4-1.4,0.6-2.3,0.8
					c-1.4,0.2-2.6-0.1-3.5-0.8c-1-0.8-1.7-2-1.9-3.7c-0.2-1.4,0.1-2.7,0.9-3.8c0.8-1.1,1.9-1.8,3.4-2c1.1-0.1,2,0,2.9,0.4
					c1,0.5,1.5,1.1,1.6,2c0.1,0.5,0,0.9-0.3,1.2c-0.2,0.3-0.6,0.5-1,0.6c-0.4,0-0.8,0-1.1-0.2c-0.3-0.2-0.5-0.5-0.6-0.9
					c0-0.3,0-0.4-0.1-0.7c0-0.2-0.2-0.4-0.4-0.5c-0.3-0.1-0.5-0.2-0.8-0.1c-0.5,0.1-0.9,0.5-1.1,1.2c-0.2,0.7-0.3,1.4-0.2,2.2
					c0.1,1,0.3,1.7,0.7,2.1c0.4,0.6,1.1,0.9,1.9,0.8c0.5-0.1,1-0.3,1.4-0.6c0.4-0.4,0.7-0.7,0.8-1.1c0-0.2,0.1-0.3,0.1-0.4
					C-0.6,274.8-0.3,275,0.3,275.2z"/>
				<path class="st7" d="M9,275.6c-0.2,0.2-0.3,0.4-0.5,0.6s-0.4,0.4-0.6,0.6c-0.1,0.1-0.3,0.2-0.7,0.4c-0.3,0.2-0.6,0.3-0.9,0.4
					s-0.7,0.1-1.2,0.2c-0.6,0.1-1.1-0.1-1.6-0.4c-0.5-0.4-0.8-0.9-0.9-1.6c-0.2-2.4-0.3-3.6-0.6-5.9C1.5,270,1.2,270,0.7,270
					c-0.1-0.6-0.1-0.9-0.1-1.5c0.6-0.2,1.1-0.5,1.5-1c0.2-0.3,0.4-0.6,0.5-0.8c0.1-0.3,0.2-0.6,0.2-0.9c0-0.3,0-0.5,0-0.9
					c0.7-0.1,1.1-0.1,1.8-0.2c0.1,1.2,0.2,1.9,0.3,3.1c1-0.1,1.6-0.1,2.6-0.2c0.1,0.7,0.1,1.1,0.2,1.8c-1,0.1-1.5,0.1-2.5,0.2
					c0.2,2.1,0.3,3.2,0.5,5.3c0,0.3,0.2,0.5,0.5,0.7c0.1,0.1,0.3,0.1,0.4,0.1c0.2,0,0.4-0.1,0.6-0.3c0.3-0.4,0.5-0.5,0.9-0.9
					C8.3,274.9,8.5,275.1,9,275.6z"/>
				<path class="st7" d="M30.2,264.6c-0.2,0-0.4,0.1-0.6,0.1c-0.1,0-0.3,0.1-0.4,0.1c-0.1,0-0.3,0.1-0.5,0.3
					c-0.2,0.1-0.4,0.3-0.5,0.5c-0.1,0.1-0.3,0.3-0.4,0.6c-1.1,1.8-1.6,2.8-2.6,4.6c0.1,1.1,0.1,1.6,0.1,2.7c0,0.2,0,0.4,0.1,0.6
					s0.2,0.3,0.3,0.4c0.2,0.2,0.5,0.3,0.8,0.3c0.2,0,0.3,0,0.6,0c0,0.6,0,1,0.1,1.6c-2.6,0-3.9,0.1-6.6,0.1c0-0.6-0.1-0.9-0.1-1.6
					c0.1,0,0.2,0,0.4,0c0.2,0,0.4,0,0.6-0.1c0.2-0.1,0.3-0.2,0.4-0.3s0.2-0.2,0.2-0.3c0-0.1,0-0.2,0-0.4c0-0.1,0-0.1,0-0.2
					c-0.1-1-0.1-1.6-0.1-2.6c-1.4-2-2-3-3.4-4.9c-0.1-0.2-0.3-0.3-0.4-0.4s-0.3-0.2-0.4-0.3c-0.2-0.1-0.3-0.2-0.4-0.2
					c-0.2-0.1-0.3-0.1-0.5-0.1s-0.2,0-0.4,0c0-0.7-0.1-1-0.1-1.7c2.9-0.1,4.3-0.2,7.2-0.2c0,0.6,0.1,1,0.1,1.6c-0.2,0-0.4,0-0.6,0
					c-0.1,0-0.2,0-0.2,0c-0.1,0-0.2,0-0.3,0c-0.1,0-0.1,0.1-0.2,0.2c-0.1,0.1-0.1,0.2-0.1,0.3s0,0.2,0.1,0.2c0,0.1,0.1,0.2,0.1,0.3
					c0.7,1.2,1.1,1.8,1.8,3.1c0.7-1.4,1-2,1.7-3.4c0.1-0.1,0.1-0.2,0.1-0.3c0-0.1,0-0.2-0.1-0.2c0-0.1-0.1-0.1-0.2-0.2
					c-0.1,0-0.2-0.1-0.4-0.1c-0.1,0-0.1,0-0.2,0c-0.2,0-0.4,0-0.6,0c0-0.6-0.1-1-0.1-1.6c2.3,0,3.4-0.1,5.7,0
					C30.2,263.6,30.2,263.9,30.2,264.6z"/>
				<path class="st7" d="M41.9,271.8c0,1.5-0.4,2.7-1.2,3.6c-0.9,0.9-2.2,1.4-3.9,1.3c-1.5,0-2.8-0.6-3.7-1.6s-1.4-2.2-1.5-3.7
					c-0.1-1.7,0.4-3,1.4-3.9c0.9-0.8,2.1-1.2,3.6-1.1c1.5,0,2.7,0.5,3.7,1.4C41.4,268.8,41.9,270.1,41.9,271.8z M38.6,272
					c0-0.3,0-0.5,0-0.9c0-0.8-0.2-1.5-0.5-2s-0.8-0.7-1.4-0.7c-0.6,0-1,0.3-1.3,0.8s-0.4,1.1-0.4,1.9c0,0.4,0,0.5,0,0.9
					c0,0.8,0.2,1.4,0.5,1.9c0.4,0.6,0.8,0.8,1.4,0.9c0.6,0,1-0.3,1.3-0.9C38.5,273.4,38.6,272.7,38.6,272z"/>
				<path class="st7" d="M54.5,277.5c-1.6-0.1-2.4-0.2-4-0.3c0-0.3,0-0.4,0-0.7c-0.4,0.2-0.7,0.3-1.1,0.5c-0.1,0.1-0.4,0.1-0.8,0.2
					c-0.4,0.1-0.9,0.1-1.2,0.1c-0.5,0-1-0.1-1.3-0.3c-0.4-0.2-0.8-0.5-1.1-0.9c-0.2-0.2-0.3-0.5-0.4-0.9c-0.1-0.4-0.2-0.7-0.2-1.1
					c0-1.5,0-2.2-0.1-3.7c0-0.2,0-0.4-0.1-0.6c0-0.2-0.1-0.3-0.3-0.4c-0.1-0.1-0.2-0.1-0.3-0.2c-0.1,0-0.2-0.1-0.3-0.1
					c-0.2,0-0.3-0.1-0.5-0.1c0-0.6,0-0.9,0-1.6c0.1,0,0.3,0,0.6,0s0.6-0.1,0.9-0.1c0.5-0.1,0.8-0.1,0.9-0.1c0.3,0,0.5-0.1,0.7-0.1
					c0.6,0,0.9,0.1,1.5,0.1c0,2.8,0,4.1,0.1,6.9c0,0.4,0.1,0.7,0.2,0.9c0.1,0.1,0.2,0.2,0.3,0.3c0.1,0,0.2,0,0.3,0
					c0.2,0,0.5,0,0.7-0.1c0.2-0.1,0.5-0.2,0.7-0.3s0.3-0.2,0.5-0.3c0-1.6,0-2.4,0-4c0-0.1,0-0.3,0-0.4c0-0.1-0.1-0.2-0.2-0.3
					c-0.1-0.1-0.2-0.2-0.3-0.3c-0.1-0.1-0.3-0.1-0.5-0.2c-0.1,0-0.2,0-0.3-0.1c0-0.6,0-0.9,0-1.6c0.4,0,0.6,0,0.8,0s0.5,0,0.9-0.1
					c0.4,0,0.6-0.1,0.7-0.1c0.2,0,0.5-0.1,0.9-0.1c0.5,0,0.7,0.1,1.2,0.1c0,2.9,0,4.3,0,7.2c0,0.2,0,0.3,0.1,0.4
					c0,0.1,0.1,0.2,0.2,0.3c0.1,0.2,0.3,0.3,0.6,0.3c0.2,0,0.3,0.1,0.4,0.1C54.5,276.6,54.5,276.9,54.5,277.5z"/>
				<path class="st7" d="M63.7,270.1c0,0.3-0.1,0.5-0.1,0.7c-0.1,0.2-0.2,0.3-0.4,0.5c-0.1,0.1-0.2,0.1-0.4,0.2
					c-0.2,0-0.3,0.1-0.5,0c-0.1,0-0.2,0-0.3-0.1c-0.1,0-0.2-0.1-0.3-0.1c-0.3-0.2-0.5-0.3-0.8-0.5c-0.1-0.1-0.2-0.1-0.3-0.1
					s-0.1,0-0.1,0h-0.1c-0.2,0.1-0.2,0.2-0.2,0.3c0,1.7,0,2.6-0.1,4.3c0,0.2,0,0.4,0,0.5s0.1,0.3,0.2,0.4c0.1,0.1,0.2,0.2,0.3,0.2
					s0.2,0.1,0.3,0.1c0.2,0,0.2,0,0.4,0.1c0,0.6,0,1,0,1.6c-2.3-0.3-3.5-0.4-5.8-0.6c0-0.6,0-0.9,0-1.6c0.2,0,0.3,0,0.5,0
					s0.2,0,0.3,0s0.2-0.1,0.3-0.1s0.2-0.1,0.3-0.2s0.1-0.2,0.1-0.4c0-1.8,0-2.7,0-4.5c0-0.1,0-0.2-0.1-0.3c0-0.1-0.1-0.2-0.2-0.3
					c-0.1-0.1-0.2-0.2-0.3-0.3c-0.1-0.1-0.3-0.1-0.5-0.2c-0.2,0-0.2,0-0.4-0.1c0-0.6,0-1,0-1.6c0.2,0,0.4,0,0.6,0c0.2,0,0.5,0,0.9,0
					s0.7,0,0.9-0.1c0.3,0,0.5-0.1,0.8-0.1s0.5,0.1,0.8,0.1c0,0.4,0,0.6,0,1c0.3-0.1,0.4-0.2,0.6-0.3c0.3-0.2,0.7-0.3,1-0.3
					c0.4,0,0.7-0.1,1,0c0.4,0,0.7,0.2,1,0.6C63.6,269.3,63.7,269.6,63.7,270.1z"/>
				<path class="st7" d="M78.8,268.8c-0.2,0-0.3,0-0.5,0c-0.1,0-0.3,0-0.4,0c-0.2,0-0.4,0.1-0.5,0.2c-0.1,0.1-0.2,0.2-0.3,0.4
					c-0.1,0.1-0.1,0.3-0.1,0.5c-0.1,3-0.2,4.5-0.4,7.5c0,0.2,0,0.4,0,0.6c0.1,0.2,0.2,0.4,0.3,0.5s0.3,0.2,0.4,0.3
					c0.1,0.1,0.3,0.1,0.5,0.1s0.3,0,0.4,0.1c0,0.6-0.1,1-0.1,1.6c-2.6-0.5-3.9-0.7-6.5-1.1c0-0.6,0-0.9,0.1-1.6c0.2,0,0.3,0,0.5,0
					s0.4,0,0.5,0c0.2,0,0.3-0.1,0.4-0.2c0.1-0.1,0.2-0.2,0.2-0.4c0-0.1,0.1-0.3,0.1-0.6c0.1-3,0.2-4.5,0.3-7.4c0-0.3,0-0.5,0-0.6
					s-0.1-0.2-0.2-0.4c-0.1-0.2-0.2-0.3-0.4-0.4c-0.2-0.1-0.3-0.2-0.5-0.2c-0.2-0.1-0.3-0.1-0.5-0.1c0-0.6,0-1,0.1-1.6
					c2.7,0.4,4.1,0.6,6.8,1.1C78.9,267.9,78.9,268.2,78.8,268.8z"/>
				<path class="st7" d="M96.3,284.3c-2.1-0.5-3.1-0.7-5.2-1.2c0-0.6,0.1-0.9,0.1-1.6c0.1,0,0.2,0,0.4,0s0.3,0,0.4-0.2
					c0.1-0.1,0.2-0.2,0.2-0.3s0.1-0.2,0.1-0.4c0.1-1.7,0.2-2.5,0.3-4.2c0-0.2,0-0.4-0.1-0.5c-0.1-0.1-0.2-0.3-0.3-0.4
					c-0.1-0.1-0.2-0.1-0.4-0.2c-0.3-0.1-0.7-0.1-1-0.1s-0.7,0.1-0.9,0.3c-0.1,1.8-0.2,2.7-0.3,4.6c0,0.2,0,0.3,0,0.4
					c0,0.1,0.1,0.2,0.2,0.4c0.1,0.1,0.2,0.2,0.4,0.3s0.2,0.1,0.4,0.2c0,0.6-0.1,0.9-0.1,1.5c-2-0.4-3-0.7-5.1-1.1
					c0-0.6,0.1-0.9,0.1-1.6c0.2,0,0.2,0,0.4,0c0.1,0,0.2,0,0.2,0c0.1,0,0.1-0.1,0.2-0.1c0.1-0.1,0.1-0.1,0.1-0.2s0-0.2,0.1-0.4
					c0.1-1.8,0.2-2.7,0.3-4.4c0-0.2,0-0.3-0.1-0.5c0-0.1-0.1-0.2-0.2-0.3c-0.1-0.1-0.2-0.1-0.4-0.2c-0.3-0.1-0.6-0.1-1,0
					c-0.4,0-0.7,0.1-1.1,0.3c-0.1,1.8-0.2,2.7-0.3,4.5c0,0.1,0,0.3,0,0.4c0,0.1,0.1,0.3,0.1,0.4c0.1,0.1,0.2,0.2,0.4,0.3
					s0.2,0.1,0.4,0.2c0,0.6-0.1,1-0.1,1.6c-2.1-0.4-3.2-0.6-5.3-1c0-0.6,0.1-0.9,0.1-1.6c0.2,0,0.3,0,0.4,0c0.2,0,0.3,0,0.4,0
					c0.1,0,0.2-0.1,0.3-0.1c0.2-0.2,0.3-0.4,0.3-0.7c0.1-1.6,0.1-2.4,0.2-4c0-0.3-0.1-0.6-0.4-0.9c-0.1-0.1-0.2-0.1-0.3-0.2
					c-0.1,0-0.2-0.1-0.3-0.1s-0.2-0.1-0.3-0.1c0-0.6,0.1-0.9,0.1-1.6c0.3,0,0.5,0,0.8,0.1c0.3,0,0.5,0.1,0.8,0.1c0.4,0,0.8,0,1,0
					c0.3,0,0.5,0,0.6-0.1c0.4,0.1,0.6,0.1,1,0.2c0,0.3,0,0.4,0,0.7c0.3-0.1,0.4-0.1,0.7-0.2c0.4-0.1,0.8-0.2,1.1-0.3
					c0.3-0.1,0.7,0,1.1,0.1c0.6,0.1,1,0.3,1.4,0.5c0.4,0.2,0.8,0.6,1.2,1.1c0.2-0.1,0.3-0.1,0.4-0.2c0.5-0.2,1-0.3,1.5-0.4
					c0.4,0,0.9,0,1.4,0.1c0.2,0,0.4,0.1,0.5,0.1s0.4,0.1,0.8,0.2c0.4,0.1,0.8,0.5,1.2,1.1c0.4,0.6,0.6,1.1,0.6,1.7
					c-0.2,1.9-0.2,2.9-0.4,4.8c0,0.2,0,0.3,0,0.3c0,0.1,0,0.2,0,0.3c0,0.1,0.1,0.2,0.1,0.2c0.1,0.1,0.1,0.1,0.2,0.2
					c0.1,0.1,0.2,0.1,0.2,0.1c0.2,0.1,0.3,0.1,0.5,0.2C96.4,283.2,96.4,283.6,96.3,284.3z"/>
				<path class="st7" d="M108.6,282.7c-0.1,1.3-0.6,2.3-1.5,3.1c-0.9,0.8-2,1-3.3,0.7c-0.4-0.1-0.7-0.2-1-0.4s-0.6-0.4-0.9-0.7
					c-0.1,0.7-0.1,1.1-0.2,1.8c0,0.2,0,0.3,0,0.4s0.1,0.2,0.1,0.4c0.1,0.2,0.3,0.4,0.6,0.4c0.2,0,0.2,0.1,0.4,0.1
					c-0.1,0.6-0.1,0.9-0.2,1.5c-2.3-0.6-3.5-0.9-5.8-1.5c0.1-0.6,0.1-0.9,0.1-1.5c0.2,0,0.2,0,0.4,0.1c0.2,0,0.3,0.1,0.5,0
					c0.1,0,0.3-0.1,0.4-0.2c0.1-0.1,0.2-0.2,0.2-0.3s0.1-0.3,0.1-0.5c0.3-3.1,0.4-4.7,0.7-7.8c0-0.2,0-0.3,0-0.4
					c0-0.1-0.1-0.2-0.1-0.3c-0.1-0.2-0.3-0.4-0.5-0.5c-0.3-0.1-0.4-0.1-0.6-0.2c0.1-0.6,0.1-0.9,0.1-1.6c0.1,0,0.3,0,0.6,0.1
					c0.4,0.1,0.7,0.1,0.9,0.1c0.7,0.1,1.2,0.1,1.5,0.1c0.5,0.1,0.7,0.2,1.2,0.3c0,0.3,0,0.5-0.1,0.8c0.4-0.3,0.8-0.4,1.1-0.5
					c0.4-0.1,0.9-0.1,1.5,0.1c1.3,0.4,2.3,1.1,2.9,2.2C108.6,279.7,108.8,281,108.6,282.7z M105.5,282.1c0-0.3,0.1-0.5,0.1-0.8
					c0.1-0.6,0-1.2-0.2-1.8c-0.3-0.8-0.6-1.2-1.2-1.3c-0.3-0.1-0.7-0.1-1,0c-0.3,0.1-0.5,0.2-0.7,0.4c-0.2,1.9-0.3,2.9-0.5,4.8
					c0.1,0.1,0.1,0.2,0.2,0.3c0.1,0.2,0.3,0.3,0.5,0.4c0.2,0.1,0.4,0.2,0.6,0.2c0.7,0.2,1.2-0.1,1.6-0.7
					C105.3,283.2,105.4,282.7,105.5,282.1z"/>
				<path class="st7" d="M119.5,290.1c-0.5,0.2-0.9,0.4-1.3,0.4c-0.4,0-0.7,0-1.1-0.1c-0.8-0.3-1.4-0.8-1.9-1.6
					c-1.1,0.4-2.1,0.4-3.1,0.1c-0.9-0.3-1.5-0.7-2-1.4c-0.5-0.6-0.7-1.4-0.6-2.1c0.1-0.7,0.4-1.2,0.8-1.6c0.4-0.4,1-0.6,1.7-0.6
					c0.5,0,0.9,0,1.3,0c0.4,0,0.8,0.1,1.3,0.2c0.3,0.1,0.5,0.1,0.8,0.2c0.1-0.6,0.1-0.9,0.2-1.4c0-0.1,0-0.3-0.1-0.4
					c-0.2-0.2-0.4-0.4-0.8-0.5c-0.3-0.1-0.5-0.1-0.7-0.2c-0.1,0-0.3,0-0.5,0.1c-0.1,0-0.2,0.1-0.2,0.2s-0.1,0.2-0.1,0.3
					c0,0.2,0,0.3-0.1,0.4c0,0.3-0.2,0.5-0.4,0.6c-0.3,0.2-0.7,0.2-1.2,0c-0.3-0.1-0.6-0.3-0.9-0.6c-0.2-0.3-0.3-0.7-0.3-1
					c0.1-0.8,0.6-1.4,1.4-1.7c0.8-0.3,1.8-0.3,2.9,0c0.8,0.3,1.6,0.6,2.2,1c0.7,0.5,1.2,1.1,1.4,1.7c0.1,0.3,0.2,0.6,0.2,0.9
					s0,0.7-0.1,1.1c-0.2,1.6-0.3,2.3-0.5,3.9c0,0.3,0,0.4,0,0.5c0,0.1,0.1,0.2,0.2,0.2c0.1,0.1,0.2,0.1,0.3,0c0.1,0,0.1-0.1,0.3-0.1
					C119,289.1,119.1,289.4,119.5,290.1z M115,286.8c0.1-0.8,0.1-1.2,0.2-2c-0.3,0-0.5-0.1-0.8-0.1s-0.5,0-0.7,0
					c-0.3,0.1-0.5,0.2-0.7,0.3c-0.2,0.2-0.3,0.4-0.4,0.7c0,0.1,0,0.2,0,0.4c0,0.2,0.1,0.3,0.2,0.4c0.1,0.1,0.3,0.2,0.5,0.3
					c0.1,0,0.3,0.1,0.5,0.1s0.4,0,0.6-0.1C114.7,286.9,114.9,286.8,115,286.8z"/>
				<path class="st7" d="M130.1,291.7c-0.1,0.2-0.2,0.3-0.4,0.5c-0.6,0.7-1.3,1.1-2.3,1.2c-0.7,0.1-1.5-0.1-2.4-0.4
					c-1.4-0.5-2.4-1.3-3.2-2.4c-0.8-1.2-1.1-2.7-0.9-4.3c0.2-1.4,0.8-2.5,1.8-3.1c1-0.7,2.3-0.8,3.8-0.3c1.1,0.4,2,1,2.7,1.8
					c0.9,0.9,1.2,1.8,1.1,2.6c-0.1,0.5-0.3,0.8-0.6,1c-0.3,0.2-0.7,0.2-1.1,0.1c-0.4-0.1-0.8-0.4-1-0.7c-0.3-0.3-0.4-0.7-0.3-1.1
					c0-0.3,0.1-0.4,0.1-0.7c0-0.2-0.1-0.4-0.3-0.7c-0.2-0.2-0.5-0.4-0.7-0.5c-0.5-0.2-1,0-1.4,0.6c-0.4,0.5-0.6,1.2-0.7,2
					c-0.1,0.9-0.1,1.7,0.1,2.3c0.3,0.8,0.8,1.3,1.6,1.6c0.5,0.2,1,0.2,1.5,0.1c0.5-0.1,0.8-0.3,1-0.6c0.1-0.1,0.1-0.2,0.2-0.4
					C129.3,290.9,129.6,291.2,130.1,291.7z"/>
				<path class="st7" d="M138.5,296.1c-0.3,0.1-0.4,0.2-0.7,0.3c-0.3,0.1-0.5,0.2-0.7,0.3c-0.1,0-0.4,0.1-0.7,0.1
					c-0.4,0-0.7,0-1-0.1s-0.7-0.2-1.3-0.4s-1.1-0.6-1.4-1.2c-0.4-0.6-0.6-1.3-0.4-1.9c0.4-2.3,0.6-3.5,0.9-5.8
					c-0.5-0.2-0.8-0.3-1.3-0.5c0.1-0.6,0.1-0.9,0.2-1.5c0.6,0.1,1.2,0,1.7-0.3c0.3-0.2,0.5-0.3,0.7-0.5c0.2-0.2,0.3-0.5,0.4-0.8
					c0.1-0.3,0.2-0.5,0.3-0.8c0.7,0.3,1.1,0.4,1.8,0.7c-0.2,1.2-0.3,1.8-0.5,3c1,0.4,1.6,0.6,2.6,1c-0.1,0.7-0.2,1-0.3,1.7
					c-1-0.4-1.5-0.6-2.5-1c-0.3,2.1-0.5,3.1-0.9,5.1c-0.1,0.3,0,0.6,0.3,0.8c0.1,0.1,0.2,0.2,0.3,0.2c0.2,0.1,0.4,0.1,0.6,0
					c0.4-0.2,0.6-0.3,1.1-0.4C138,295.1,138.2,295.4,138.5,296.1z"/>
			</g>
		</g>
	</g>
</g>
</svg>
